<svg width="192" height="34" viewBox="0 0 192 34" fill="none" xmlns="http://www.w3.org/2000/svg">
<path d="M68.691 17.3854C71.0937 16.158 72.7439 13.6625 72.7439 10.7762C72.7439 6.677 69.4254 3.35352 65.3317 3.35352H52.6585C51.6023 3.35352 50.7432 4.21053 50.7432 5.26947V31.1283C50.7432 32.1859 51.6 33.0443 52.6585 33.0443H65.5697C70.0601 33.0443 73.7004 29.3997 73.7004 24.9041C73.7004 21.5151 71.6309 18.6114 68.691 17.3854ZM57.4413 8.62057H62.9403C64.6562 8.62057 66.048 10.0136 66.048 11.7335C66.048 13.4518 64.6585 14.8463 62.9403 14.8463H57.4413V8.62057ZM66.5263 24.6629C66.5263 26.3813 65.1345 27.7758 63.4163 27.7758H57.439V20.5927H63.4163C65.1345 20.5927 66.5263 21.9858 66.5263 23.7057V24.6629Z" fill="black"/>
<path d="M184.604 4.79011V21.9102L175.442 4.13208C175.195 3.65419 174.703 3.35497 174.166 3.35497H168.823C168.03 3.35497 167.389 3.99846 167.389 4.79156V31.609C167.389 32.4021 168.03 33.0457 168.823 33.0457H172.65C173.441 33.0457 174.082 32.4021 174.082 31.609V14.489L183.247 32.267C183.494 32.7451 183.986 33.0443 184.523 33.0443H189.865C190.656 33.0443 191.3 32.4008 191.3 31.6077V4.79011C191.3 3.99701 190.656 3.35352 189.865 3.35352H186.039C185.248 3.35352 184.604 3.99701 184.604 4.79011Z" fill="black"/>
<path d="M122.709 4.25848L117.172 18.1698L111.632 4.25848C111.414 3.71229 110.886 3.35352 110.299 3.35352H104.737C103.943 3.35352 103.302 3.99701 103.302 4.79011V31.6077C103.302 32.4008 103.943 33.0443 104.737 33.0443H108.085C108.876 33.0443 109.519 32.4008 109.519 31.6077V15.8849L112.89 23.9163C113.262 24.8053 114.132 25.3833 115.095 25.3833H119.246C120.209 25.3833 121.077 24.8053 121.451 23.9163L124.824 15.8849V31.6077C124.824 32.4008 125.466 33.0443 126.259 33.0443H129.607C130.398 33.0443 131.042 32.4008 131.042 31.6077V4.79011C131.042 3.99701 130.398 3.35352 129.607 3.35352H124.042C123.455 3.35352 122.927 3.71229 122.709 4.25848Z" fill="black"/>
<path d="M162.128 9.79707V0.952315C162.128 0.165016 161.219 -0.280927 160.589 0.196973L155.674 3.93157C153.85 3.09198 151.823 2.61987 149.693 2.61987H148.736C146.603 2.61987 144.579 3.09198 142.754 3.93157L137.84 0.196973C137.21 -0.280927 136.301 0.165016 136.301 0.952315V9.79707C135.088 11.8888 134.388 14.3073 134.388 16.8828V20.6871C134.388 28.0095 140.415 34 147.779 34H150.649C158.014 34 164.041 28.0095 164.041 20.6871V16.8828C164.041 14.3073 163.34 11.8888 162.128 9.79707ZM156.388 20.2106C156.388 24.1326 153.161 27.3429 149.214 27.3429C145.268 27.3429 142.04 24.1342 142.04 20.2106V16.4063C142.04 12.4844 145.268 9.27414 149.214 9.27414C153.161 9.27414 156.388 12.4829 156.388 16.4063V20.2106Z" fill="#FF6000"/>
<path d="M34.9127 27.2964V4.79011C34.9127 3.99701 34.2689 3.35352 33.4778 3.35352H29.6516C28.8605 3.35352 28.2168 3.99701 28.2168 4.79011V31.6077C28.2168 32.4008 28.8605 33.0443 29.6516 33.0443H46.8696C47.6607 33.0443 48.3044 32.4008 48.3044 31.6077V28.7344C48.3044 27.9413 47.6607 27.298 46.8696 27.298L34.9127 27.2964Z" fill="black"/>
<path d="M20.3271 33.0305H24.8696C25.4839 33.0305 25.9372 32.4611 25.8035 31.8613L19.7899 5.20641C19.5451 4.11406 18.5772 3.33984 17.4575 3.33984H8.36793C7.25044 3.33984 6.28255 4.11551 6.03548 5.20641L0.0241552 31.8613C-0.111848 32.4598 0.343769 33.0305 0.955781 33.0305H5.50054C6.05815 33.0305 6.54322 32.6427 6.66563 32.0966L8.18432 25.3681H17.6411L19.1575 32.0966C19.2822 32.6427 19.7672 33.0305 20.3271 33.0305ZM9.52395 19.6378L11.8156 9.47554C11.8655 9.25764 12.0581 9.10222 12.2826 9.10222H13.6335C13.8557 9.10222 14.0506 9.25764 14.1004 9.47554L16.3921 19.6378H9.52395Z" fill="black"/>
<path d="M94.9329 33.0305H99.4777C100.09 33.0305 100.545 32.4611 100.409 31.8613L94.398 5.20641C94.1509 4.11406 93.183 3.33984 92.0655 3.33984H82.976C81.8562 3.33984 80.8883 4.11551 80.6413 5.20641L74.63 31.8613C74.4962 32.4598 74.9495 33.0305 75.5638 33.0305H80.1063C80.6662 33.0305 81.149 32.6427 81.2737 32.0966L82.7901 25.3681H92.2468L93.7655 32.0966C93.8879 32.6427 94.3753 33.0305 94.9329 33.0305ZM84.132 19.6378L86.4236 9.47554C86.4735 9.25764 86.6662 9.10222 86.8906 9.10222H88.2393C88.4637 9.10222 88.6564 9.25764 88.7062 9.47554L90.9979 19.6378H84.132Z" fill="black"/>
</svg>
