<svg width="181" height="39" viewBox="0 0 181 39" fill="none" xmlns="http://www.w3.org/2000/svg">
<path d="M32.353 10.1268C32.2487 9.73046 31.9149 8.62479 31.0387 7.12275C28.0346 1.90731 22.1724 0.613884 19.7942 0.238373C16.8736 -0.220585 13.7234 -0.0119675 10.9071 0.822502C7.21458 1.90731 4.25221 3.86832 2.37466 6.7681C-0.420816 11.0656 -0.0244441 15.6761 0.0798646 16.5523C0.392791 19.1182 1.28984 21.0584 1.97828 22.1849L8.11163 18.3881C7.90302 18.0334 7.40233 17.0947 7.23544 15.6969C7.23544 15.6761 6.94338 12.964 8.42456 10.6901C10.7819 7.08102 16.1643 6.97671 18.6885 7.37309C22.7357 7.99894 24.3003 9.8765 24.7802 10.711C25.1974 11.4411 25.3643 11.9209 25.3643 11.9627C25.6772 13.1309 25.5103 14.8416 24.4255 15.9055C24.2586 16.0724 23.8205 16.6148 23.3198 16.7817C23.3198 16.7817 23.0278 16.7191 22.6314 16.6357C22.3185 16.5731 22.0055 16.5314 21.6926 16.4897C21.4631 16.4688 21.2128 16.4479 20.9833 16.4271H20.8582C20.5452 16.4271 20.2949 16.4271 20.0654 16.4688C18.3547 16.6774 17.0196 18.0126 16.8318 19.6815C16.6232 21.6217 17.9375 23.3115 19.8985 23.6661C20.274 23.7287 20.7747 23.7913 21.0876 23.8121C21.3171 23.8121 21.5257 23.833 21.7343 23.833C23.2364 24.3128 24.4672 25.5437 24.6967 26.545C24.9888 27.8384 23.9248 29.3822 23.5493 29.7995C22.4854 30.9677 20.4826 31.8022 18.0418 31.7396C16.0391 31.677 13.9112 31.0512 12.0962 30.1124L18.2713 10.1268H11.0531L6.52614 24.7926C6.38011 24.5423 6.25494 24.292 6.12977 24.0416L0.0381402 27.8176C1.10209 29.9663 2.37466 31.6979 3.96015 33.1791L2.31207 38.5405H9.53023L9.96833 37.1219C12.4509 38.2276 15.2046 38.916 17.8749 38.9995C18.0627 38.9995 18.2296 38.9995 18.3965 38.9995C22.7566 38.9995 26.47 37.3723 28.8899 34.702C29.1403 34.4099 30.0582 33.3668 30.8092 31.823C31.9357 29.5491 32.2487 27.1917 31.748 24.9804C31.4142 23.4783 30.7049 22.1015 29.7035 20.8706C32.3112 18.1377 33.3543 13.9654 32.353 10.1268Z" fill="black"/>
<path d="M88.7213 22.6239C90.432 22.6239 93.4569 23.4375 96.0647 24.7935L97.2329 18.7019C94.8755 17.5545 91.6003 16.7617 88.6379 16.7617C82.9218 16.7617 79.1458 19.5781 79.0624 24.3763C79.0206 26.8171 79.9594 28.3608 81.5658 29.2579C83.1721 30.155 85.2583 30.5931 86.2805 30.9894C87.3236 31.3649 87.8034 31.5944 87.8034 32.262C87.8034 32.9504 87.115 33.2425 86.3222 33.2425C84.5699 33.2425 80.5644 32.1785 77.7689 30.4679L76.5381 36.8933C79.0624 38.0824 82.6714 39.0003 85.8841 39.0003C91.7254 39.0003 95.9395 36.1214 96.0438 31.1563C96.0855 29.3205 95.4805 28.0479 94.1245 27.0674C92.7685 26.0869 91.037 25.5028 89.4098 24.9812C87.8243 24.4597 87.2193 24.2511 87.2193 23.6252C87.2193 23.062 87.6574 22.6447 88.7422 22.6447L88.7213 22.6239Z" fill="black"/>
<path d="M68.7565 22.6239C70.4672 22.6239 73.4921 23.4375 76.0998 24.7935L77.2681 18.7019C74.9107 17.5545 71.6354 16.7617 68.673 16.7617C62.9569 16.7617 59.181 19.5781 59.0975 24.3763C59.0558 26.8171 59.9946 28.3608 61.6009 29.2579C63.2073 30.155 65.2934 30.5931 66.3157 30.9894C67.3588 31.3649 67.8386 31.5944 67.8386 32.262C67.8386 32.9296 67.1501 33.2425 66.3574 33.2425C64.605 33.2425 60.5995 32.1785 57.8041 30.4679L56.5732 36.8933C59.0975 38.0824 62.7066 39.0003 65.9193 39.0003C71.7606 39.0003 75.9747 36.1214 76.079 31.1563C76.1207 29.3205 75.5157 28.0479 74.1597 27.0674C72.8037 26.0869 71.0721 25.5028 69.4449 24.9812C67.8594 24.4597 67.2544 24.2511 67.2544 23.6252C67.2544 23.062 67.6925 22.6447 68.7774 22.6447L68.7565 22.6239Z" fill="black"/>
<path d="M126.376 16.7611C123.539 16.7611 121.098 17.7833 119.158 19.3688C118.115 17.6582 116.238 16.7611 113.859 16.7611C111.69 16.7611 109.729 17.5956 108.248 18.8681V18.8055L108.561 17.1992H100.424L96.3564 38.5407H104.493L107.142 24.6051C107.893 24.1461 108.853 23.7915 109.666 23.7915C110.793 23.7915 111.669 24.2922 111.502 25.4187L108.999 38.5407H117.135L119.784 24.6051C120.535 24.1461 121.474 23.7915 122.308 23.7915C123.435 23.7915 124.311 24.2922 124.144 25.4187L121.641 38.5407H129.777L132.552 23.9584C132.739 23.0196 132.718 22.06 132.51 21.1421C131.842 18.3257 129.527 16.7402 126.335 16.7402L126.376 16.7611Z" fill="black"/>
<path d="M46.1425 16.7617C42.6377 16.7617 39.5502 18.076 37.2762 20.2039C35.0023 22.3318 33.542 25.4819 33.4794 29.0701C33.3751 34.9949 37.7143 39.0003 44.1189 39.0003C47.6236 39.0003 50.7112 37.7486 52.9851 35.6207C55.259 33.4928 56.7819 30.3218 56.8445 26.7336C56.9488 20.8089 52.547 16.7617 46.1425 16.7617ZM47.5193 30.6139C46.7892 31.4692 45.8713 31.9491 44.557 31.9491C42.7629 31.9491 41.532 30.5305 41.5737 28.6529C41.5946 27.3803 42.0744 26.0035 42.8046 25.1481C43.5347 24.2928 44.4527 23.7921 45.7669 23.7921C47.5611 23.7921 48.7919 25.2316 48.7502 27.1091C48.7293 28.3817 48.2495 29.7586 47.5193 30.6139Z" fill="black"/>
<path d="M174.359 16.7611C172.064 16.7611 170.103 17.5956 168.664 18.8681L168.977 17.1992H160.84L156.772 38.5407H164.909L167.558 24.6051C168.33 24.1253 169.248 23.7915 170.145 23.7915C171.188 23.7915 172.064 24.2713 171.939 25.3561L169.436 38.5407H177.572L179.971 25.9611C180.158 24.9806 180.263 23.9167 180.284 23.1448C180.367 19.0976 178.218 16.7402 174.38 16.7402L174.359 16.7611Z" fill="black"/>
<path d="M156.501 23.2898L158.149 14.6113C158.191 14.4236 158.128 14.1732 157.92 14.0689C157.774 14.0064 157.565 14.0272 157.356 14.1941L152.454 18.3039C150.764 17.3025 148.657 16.7392 146.3 16.7392C144.506 16.7392 142.837 17.073 141.335 17.678L138.497 14.1732C138.351 14.0064 138.143 13.9855 137.976 14.0481C137.726 14.1524 137.579 14.4027 137.538 14.5905L136.223 21.4957C134.659 23.5193 133.678 26.127 133.637 29.0268C133.532 34.9515 137.872 38.957 144.276 38.957C147.781 38.957 150.868 37.7053 153.142 35.5774C155.416 33.4495 156.939 30.2785 157.002 26.6903C157.023 25.4594 156.856 24.2912 156.501 23.2481V23.2898ZM147.677 30.6123C146.946 31.4676 146.028 31.9474 144.714 31.9474C142.92 31.9474 141.689 30.5288 141.731 28.6513C141.752 27.3787 142.232 26.0018 142.962 25.1465C143.692 24.2912 144.61 23.7905 145.924 23.7905C147.718 23.7905 148.949 25.23 148.907 27.1075C148.887 28.3801 148.407 29.757 147.677 30.6123Z" fill="#FF5A3D"/>
</svg>
