<svg width="492" height="112" viewBox="0 0 492 112" fill="none" xmlns="http://www.w3.org/2000/svg">
<path d="M28.3789 90.5078C28.3789 92.9336 29.3809 95.4297 31.6309 96.6074L30.5234 98.0488C29.0381 97.2754 28.0449 95.8867 27.4824 94.2168C26.9199 96.0098 25.918 97.5479 24.4238 98.4004L23.2988 96.959C25.5137 95.6582 26.5332 93.0215 26.5332 90.5078V90.0684H23.7559V88.4688H26.5332V86.2363H28.3789V88.4688H31.1211V90.0684H28.3789V90.5078ZM37.3086 85.6738V101.564H35.4453V93.5137H33.8105V100.791H31.9648V85.9551H33.8105V91.8965H35.4453V85.6738H37.3086ZM53.5684 93.3203V94.8848H39.084V93.3203H42.459V91.2988C41.2637 90.7979 40.5781 89.998 40.5781 88.9609C40.5781 87.0625 42.8105 85.9375 46.3086 85.9375C49.8066 85.9375 52.0215 87.0625 52.0391 88.9609C52.0303 90.0068 51.3447 90.8066 50.1406 91.2988V93.3203H53.5684ZM46.3086 95.8516C49.7363 95.834 51.793 96.8535 51.8105 98.6816C51.793 100.527 49.7363 101.529 46.3086 101.529C42.8457 101.529 40.7715 100.527 40.7715 98.6816C40.7715 96.8535 42.8457 95.834 46.3086 95.8516ZM46.3086 97.3281C43.9883 97.3281 42.7402 97.7852 42.7578 98.6816C42.7402 99.5781 43.9883 100.053 46.3086 100.053C48.5762 100.053 49.8418 99.5781 49.8594 98.6816C49.8418 97.7852 48.5762 97.3281 46.3086 97.3281ZM46.3086 87.4492C43.9531 87.4492 42.5996 87.9766 42.6172 88.9609C42.5996 89.9277 43.9531 90.4375 46.3086 90.4375C48.6465 90.4375 50.0176 89.9277 50.0176 88.9609C50.0176 87.9766 48.6465 87.4492 46.3086 87.4492ZM44.4277 93.3203H48.1895V91.8086C47.6182 91.8877 46.9854 91.9316 46.3086 91.9316C45.6318 91.9316 44.999 91.8877 44.4277 91.8086V93.3203ZM72.1484 85.6738V101.582H70.2148V85.6738H72.1484ZM67.2617 87.0625V93.0215H61.7949V96.2207C64.2998 96.2031 66.4619 96.0801 68.9316 95.6582L69.1074 97.2578C66.4004 97.7324 64.0273 97.8203 61.1797 97.8203H59.791V91.4746H65.2754V88.6445H59.7734V87.0625H67.2617ZM87.3711 93.127V94.6914H76.2266V87.0625H87.248V88.6445H78.1602V93.127H87.3711ZM88.9883 97.9258V99.543H74.4688V97.9258H88.9883ZM102.453 87.0449V88.6445H96.9336V91.4746H102.172V93.0215H96.9336V96.291C99.377 96.2734 101.284 96.1855 103.508 95.8164L103.684 97.3984C101.24 97.7852 99.1133 97.873 96.2656 97.873H94.9473V87.0449H102.453ZM106.742 85.6738V91.8262H109.186V93.4609H106.742V101.564H104.791V85.6738H106.742ZM123.09 85.6914V94.6914H121.121V85.6914H123.09ZM123.09 95.4648V101.371H112.543V95.4648H123.09ZM114.477 97.0117V99.7891H121.174V97.0117H114.477ZM114.424 86.4473C116.867 86.4473 118.695 87.9941 118.695 90.2441C118.695 92.4238 116.867 94.0059 114.424 94.0059C111.963 94.0059 110.135 92.4238 110.135 90.2441C110.135 87.9941 111.963 86.4473 114.424 86.4473ZM114.424 88.0996C113.035 88.0996 112.033 88.9258 112.051 90.2441C112.033 91.5273 113.035 92.3535 114.424 92.3535C115.795 92.3535 116.779 91.5273 116.779 90.2441C116.779 88.9258 115.795 88.0996 114.424 88.0996ZM142.215 85.6738V90.1387H144.447V91.7559H142.215V97.1699H140.264V85.6738H142.215ZM137.469 86.9922V88.5566H132.283V92.8809C135.271 92.8896 136.933 92.7842 138.822 92.3887L139.033 93.9707C136.959 94.375 135.096 94.4805 131.633 94.4805H130.35V86.9922H137.469ZM142.848 99.666V101.248H132.037V95.957H133.988V99.666H142.848ZM159.723 93.5488V95.1133H153.43V96.625H157.947V101.529H155.996V98.1895H146.838V96.625H151.496V95.1133H145.238V93.5488H159.723ZM153.43 85.6562V87.168H158.299V88.6973H153.57C153.781 90.0508 155.645 91.1582 159.002 91.4043L158.387 92.8809C155.557 92.6436 153.456 91.7646 152.463 90.3848C151.47 91.7646 149.36 92.6436 146.539 92.8809L145.924 91.4043C149.246 91.1582 151.127 90.0508 151.355 88.6973H146.662V87.168H151.496V85.6562H153.43Z" fill="#8C8C8C"/>
<circle cx="436" cy="56" r="56" fill="white"/>
<path d="M449.386 31.8991L431.556 58.4708V80.7972H445.525L463.356 54.2256V31.8991H449.386Z" fill="#664FFF"/>
<path d="M425.309 31.8991L407.479 58.4708V80.7972H421.448L439.278 54.2256V31.8991H425.309Z" fill="#664FFF"/>
<rect y="11" width="180" height="45" rx="22.5" fill="#BAB0FF" fill-opacity="0.11"/>
<path d="M35.9727 25.6738V31.7031H38.416V33.3027H35.9727V41.582H34.0215V25.6738H35.9727ZM31.6133 27.1855V28.7676H26.1289V36.0625C28.5986 36.0625 30.5498 35.9395 32.7383 35.5527L32.9668 37.2051C30.5059 37.627 28.3613 37.6973 25.4961 37.6973H24.1777V27.1855H31.6133ZM47.3633 26.9922C47.3633 28.9961 49.5957 31.0176 52.9883 31.457L52.2148 33.0391C49.5166 32.6348 47.3721 31.3076 46.3438 29.5059C45.2979 31.3076 43.1621 32.6348 40.4902 33.0391L39.7168 31.457C43.0742 31.0176 45.3066 28.9961 45.3066 26.9922V26.1836H47.3633V26.9922ZM53.5684 34.4102V36.0273H47.2578V41.5645H45.3242V36.0273H39.084V34.4102H53.5684ZM59.791 26.7812C62.3047 26.7637 64.1504 28.3633 64.168 30.6133C64.1504 32.8809 62.3047 34.4629 59.791 34.4629C57.2949 34.4629 55.4316 32.8809 55.4316 30.6133C55.4316 28.3633 57.2949 26.7637 59.791 26.7812ZM59.791 28.4688C58.4023 28.4688 57.3652 29.2949 57.3652 30.6133C57.3652 31.9492 58.4023 32.7578 59.791 32.7578C61.1973 32.7578 62.252 31.9492 62.252 30.6133C62.252 29.2949 61.1973 28.4688 59.791 28.4688ZM67.877 25.6738V41.582H65.9258V25.6738H67.877ZM54.7109 36.6602C57.5762 36.6602 61.5488 36.625 64.9766 36.1328L65.1348 37.5566C61.5664 38.2422 57.752 38.2598 54.957 38.2598L54.7109 36.6602ZM80.4629 30.1914C80.4629 32.793 81.9922 35.5352 84.5586 36.6074L83.4863 38.1543C81.6055 37.3457 80.2344 35.6758 79.5137 33.6543C78.7754 35.834 77.3867 37.6621 75.5234 38.541L74.3984 37.0117C76.9121 35.8516 78.4766 32.8984 78.4766 30.1914V28.8555H74.9785V27.2383H83.9434V28.8555H80.4629V30.1914ZM87.6875 25.6738V41.5645H85.7188V25.6738H87.6875ZM103.35 25.6914V37.7148H101.381V36.3262H98.2695V34.9551H101.381V25.6914H103.35ZM103.719 39.666V41.248H92.0645V36.5547H94.0156V39.666H103.719ZM89.9551 32.8281C92.8906 32.8105 96.8281 32.7754 100.203 32.3535L100.309 33.7598C98.999 33.9795 97.6455 34.1289 96.3008 34.2168V37.2754H94.3496V34.3223C92.8643 34.3838 91.4492 34.3926 90.2012 34.3926L89.9551 32.8281ZM95.1406 26.2715C97.4609 26.2715 99.0781 27.4141 99.0957 29.084C99.0781 30.7891 97.4609 31.8789 95.1406 31.8789C92.7852 31.8789 91.168 30.7891 91.168 29.084C91.168 27.4141 92.7852 26.2715 95.1406 26.2715ZM95.1406 27.7129C93.875 27.7129 93.0137 28.2227 93.0137 29.084C93.0137 29.9453 93.875 30.4551 95.1406 30.4551C96.3535 30.4551 97.2148 29.9453 97.2324 29.084C97.2148 28.2227 96.3535 27.7129 95.1406 27.7129ZM111.277 30.1914C111.277 32.6523 112.736 35.4473 115.25 36.6074L114.16 38.1543C112.367 37.3105 111.04 35.6055 110.328 33.6191C109.607 35.7988 108.219 37.6621 106.391 38.541L105.248 37.0117C107.779 35.8164 109.309 32.8281 109.326 30.1914V28.8555H105.863V27.2383H114.6V28.8555H111.277V30.1914ZM118.027 25.6738V31.8613H120.471V33.4961H118.027V41.5645H116.076V25.6738H118.027ZM134.287 26.8516V27.8008C134.27 28.8906 134.27 30.4551 133.9 32.4766L131.967 32.3008C132.274 30.6572 132.336 29.4443 132.371 28.4688H126.184V26.8516H134.287ZM130.279 30.4727V33.6367C131.923 33.5752 133.61 33.4521 135.148 33.2324L135.254 34.6387C131.949 35.2363 128.205 35.2891 125.41 35.3066L125.234 33.7422C126.175 33.7334 127.229 33.7246 128.346 33.707V30.4727H130.279ZM138.084 25.6738V30.6309H140.141V32.2656H138.084V37.5742H136.08V25.6738H138.084ZM138.594 39.666V41.248H127.607V36.5195H129.576V39.666H138.594ZM154.203 25.6738V41.582H152.27V25.6738H154.203ZM149.316 27.0625V33.0215H143.85V36.2207C146.354 36.2031 148.517 36.0801 150.986 35.6582L151.162 37.2578C148.455 37.7324 146.082 37.8203 143.234 37.8203H141.846V31.4746H147.33V28.6445H141.828V27.0625H149.316Z" fill="#664FFF"/>
<rect x="198" y="9" width="164" height="49" rx="24.5" fill="#EEEEFB"/>
<path d="M236.061 25.6738V30.2441H238.275V31.8789H236.061V37.1348H234.074V25.6738H236.061ZM231.736 26.8867C231.736 31.1055 228.994 34.1113 224.283 35.4824L223.475 33.9355C227.104 32.8896 229.267 30.9121 229.609 28.4863H224.143V26.8867H231.736ZM236.658 39.666V41.248H225.848V35.957H227.834V39.666H236.658ZM252.391 25.6738V37.416H250.439V33.2676H248.189V31.6504H250.439V30.1387H248.189V28.5566H250.439V25.6738H252.391ZM247.961 26.8691V28.4336H246.555V33.4961C247.152 33.4609 247.732 33.417 248.295 33.3555L248.383 34.7793C245.377 35.2715 241.844 35.3242 239.312 35.3242L239.102 33.707L240.895 33.6895V28.4336H239.506V26.8691H247.961ZM252.795 39.666V41.248H241.949V36.502H243.918V39.666H252.795ZM242.793 33.6719L244.674 33.6016V28.4336H242.793V33.6719ZM267.174 25.6914V30.6836H269.389V32.3008H267.174V37.5566H265.223V25.6914H267.174ZM264.08 27.4492V29.0137H254.658V27.4492H258.402V25.6738H260.354V27.4492H264.08ZM259.369 29.6641C261.654 29.6641 263.236 30.877 263.254 32.7051C263.236 34.5156 261.654 35.7109 259.369 35.7109C257.066 35.7109 255.467 34.5156 255.467 32.7051C255.467 30.877 257.066 29.6641 259.369 29.6641ZM259.369 31.1758C258.156 31.1758 257.365 31.7383 257.365 32.7051C257.365 33.6543 258.156 34.2168 259.369 34.1992C260.582 34.2168 261.391 33.6543 261.391 32.7051C261.391 31.7383 260.582 31.1758 259.369 31.1758ZM267.807 39.666V41.248H256.996V36.625H258.947V39.666H267.807ZM282.625 27.0098V28.2754H285.824V25.6914H287.775V37.2578H285.824V33.25H282.625V34.6211H275.154V27.0098H282.625ZM277.105 28.5566V33.0918H280.691V28.5566H277.105ZM288.127 39.666V41.248H277.299V36.1855H279.285V39.666H288.127ZM282.625 31.6855H285.824V29.875H282.625V31.6855ZM303.332 25.6738V34.3398H301.381V30.9473H298.639V29.3301H301.381V25.6738H303.332ZM294.807 35.0078V36.6602H301.381V35.0078H303.332V41.3711H292.855V35.0078H294.807ZM294.807 39.7891H301.381V38.1895H294.807V39.7891ZM299.148 26.4824V28.082H295.861C295.879 29.9893 297.162 31.958 299.605 32.7754L298.621 34.2871C296.846 33.6719 295.589 32.4766 294.895 30.9824C294.191 32.6436 292.873 33.9795 290.992 34.6211L289.99 33.0742C292.504 32.2217 293.857 30.165 293.875 28.082H290.57V26.4824H299.148ZM320.102 38.0488V39.6484H305.582V38.0488H311.857V34.3926H313.809V38.0488H320.102ZM318.854 26.957V28.5566H313.844C313.905 30.8418 316.261 32.9424 319.521 33.4258L318.748 34.9727C316.059 34.4805 313.861 33.0654 312.842 31.0879C311.813 33.0918 309.634 34.5596 306.988 35.0605L306.215 33.5137C309.388 32.9775 311.726 30.8418 311.787 28.5566H306.795V26.957H318.854ZM328.363 25.832C331.984 25.832 334.076 26.7988 334.094 28.5566C334.076 30.332 331.984 31.2812 328.363 31.2988C324.742 31.2812 322.633 30.332 322.633 28.5566C322.633 26.7988 324.742 25.832 328.363 25.832ZM328.363 27.291C325.938 27.291 324.672 27.7305 324.689 28.5566C324.672 29.4355 325.938 29.8398 328.363 29.8574C330.824 29.8398 332.072 29.4355 332.072 28.5566C332.072 27.7305 330.824 27.291 328.363 27.291ZM335.623 32.0547V33.6016H331.861V34.8672H333.812V38.752H324.777V39.9297H334.252V41.4238H322.861V37.3633H331.896V36.3086H322.844V34.8672H324.883V33.6016H321.139V32.0547H335.623ZM326.816 34.8672H329.91V33.6016H326.816V34.8672Z" fill="#664FFF"/>
</svg>
