<svg width="193" height="35" viewBox="0 0 193 35" fill="none" xmlns="http://www.w3.org/2000/svg">
<path d="M151.921 0C144.573 0 138.231 4.12329 138.231 14.5753V20.6644C138.231 31.1164 144.549 35 151.921 35C159.292 35 166.208 30.9966 166.208 20.5445V14.4555C166.208 4.00342 159.268 0 151.921 0ZM158.55 21.2637C158.55 24.7637 155.75 27.6404 152.303 27.6404H152.208C148.762 27.6404 145.961 24.7637 145.961 21.2637V13.6164C145.961 10.1644 148.714 7.35959 152.136 7.35959C155.702 7.35959 158.574 10.2842 158.574 13.8801V21.2637H158.55Z" fill="#00A6E2"/>
<path d="M128.706 34.472C132.152 34.472 134.952 31.6433 134.952 28.1672V1.46174C134.952 0.958316 134.545 0.550781 134.043 0.550781H128.562C128.06 0.550781 127.653 0.958316 127.653 1.46174V26.1775C127.653 26.6809 127.246 27.0885 126.744 27.0885H118.702C118.2 27.0885 117.793 27.496 117.793 27.9994V33.5371C117.793 34.0405 118.2 34.448 118.702 34.448H128.73L128.706 34.472Z" fill="#00A6E2"/>
<path d="M91.6116 0.550781C91.109 0.550781 90.7021 0.958316 90.7021 1.46174V33.5371C90.7021 34.0405 91.109 34.448 91.6116 34.448H113.198C113.701 34.448 114.108 34.0405 114.108 33.5371V27.9994C114.108 27.496 113.701 27.0885 113.198 27.0885H98.3843V20.9994H113.198C113.701 20.9994 114.108 20.5919 114.108 20.0885V14.9343C114.108 14.4309 113.701 14.0234 113.198 14.0234H98.3843V7.93434H113.198C113.701 7.93434 114.108 7.52681 114.108 7.02338V1.48571C114.108 0.982287 113.701 0.574754 113.198 0.574754H91.6116V0.550781Z" fill="#00A6E2"/>
<path d="M184.492 34.472C189.111 34.472 192.916 30.6364 192.916 25.9378V24.1878C192.916 21.2631 191.456 18.6741 189.206 17.1398C191.312 15.5816 192.676 13.0645 192.676 10.2597V9.08503C192.676 4.3864 188.895 0.550781 184.252 0.550781H170.396C169.893 0.550781 169.486 0.958314 169.486 1.48571V33.5611C169.486 34.0645 169.893 34.496 170.396 34.496H184.468L184.492 34.472ZM185.784 24.1638C185.784 26.0816 184.372 27.6398 182.481 27.6398H177.192V20.6398H182.481C184.372 20.6398 185.784 22.198 185.784 24.1159V24.1638ZM177.168 7.359H182.769C184.396 7.359 185.593 8.70147 185.593 10.3556V10.6193C185.593 12.2734 184.396 13.6159 182.769 13.6159H177.168V7.359Z" fill="#00A6E2"/>
<path d="M74.7638 22.5122C75.3382 22.5122 75.7929 22.2964 76.104 21.7451L80.0767 14.4574V33.5156C80.0767 34.019 80.4836 34.4266 80.9862 34.4266H86.4666C86.9692 34.4266 87.376 34.019 87.376 33.5156V1.44026C87.376 0.936831 86.9692 0.529297 86.4666 0.529297H81.4648C81.1776 0.529297 80.9383 0.577243 80.7229 0.64916C80.5314 0.721078 80.3639 0.816968 80.3639 0.816968C80.0289 1.00875 79.8135 1.32039 79.5742 1.7519L75.9365 8.65601L72.2749 15.5601L68.6133 8.65601L64.9757 1.7519C64.7363 1.29642 64.5209 1.00875 64.1859 0.816968C64.1859 0.816968 64.0184 0.721078 63.8269 0.64916C63.6115 0.577243 63.3722 0.529297 63.085 0.529297H58.0832C57.5807 0.529297 57.1738 0.936831 57.1738 1.44026V33.5156C57.1738 34.019 57.5807 34.4266 58.0832 34.4266H63.5637C64.0662 34.4266 64.4731 34.019 64.4731 33.5156V14.4574L68.4458 21.7451C68.7569 22.2964 69.2116 22.5122 69.786 22.5122H74.6681H74.7638Z" fill="#00A6E2"/>
<path d="M23.3831 6.99941V1.46174C23.3831 0.958316 22.9762 0.550781 22.4737 0.550781H8.21019C7.70762 0.550781 7.30078 0.958316 7.30078 1.46174V7.91037H22.4737C22.9762 7.91037 23.3831 7.50283 23.3831 6.99941Z" fill="#00A6E2"/>
<path d="M7.29926 27.0902V7.91211H0.909416C0.406844 7.91211 0 8.31964 0 8.82307V33.5388C0 34.0423 0.406844 34.4498 0.909416 34.4498H22.4961C22.9986 34.4498 23.4055 34.0423 23.4055 33.5388V14.5525C23.4055 14.0491 22.9986 13.6416 22.4961 13.6416H12.2532C11.7506 13.6416 11.3438 14.0731 11.3438 14.5765V20.1142C11.3438 20.6176 11.7506 21.0251 12.2532 21.0251H16.1062V27.1142H7.32319L7.29926 27.0902Z" fill="#00A6E2"/>
<path d="M35.5638 27.0885L34.0082 33.6569C33.9125 34.1124 33.5535 34.472 33.1227 34.472H27.0679C26.5414 34.472 26.2303 34.0405 26.3739 33.5371V33.4891L33.6731 5.56106C34.7979 1.19804 37.6937 0.550781 40.2784 0.550781H40.4459C43.0545 0.550781 45.9502 1.19804 47.0511 5.56106L54.2547 33.4891C54.2547 33.4891 54.2547 33.5371 54.2547 33.5611C54.3743 34.0165 54.0153 34.472 53.5367 34.472H47.4819C47.0272 34.472 46.6682 34.1124 46.5964 33.6569L45.0887 27.0885H35.5398H35.5638ZM37.0715 20.8316H43.6767L40.8049 8.79736C40.6852 8.26996 40.5416 7.91037 40.3741 7.91037C40.2066 7.91037 40.0869 8.26996 39.9433 8.79736L37.0715 20.8316Z" fill="#00A6E2"/>
</svg>
