<svg width="47" height="47" viewBox="0 0 47 47" fill="none" xmlns="http://www.w3.org/2000/svg">
<path d="M35.684 17.0412V8.91146C35.684 8.18781 34.8366 7.77792 34.2491 8.21718L29.6676 11.6499C27.9665 10.8782 26.0772 10.4442 24.0908 10.4442H23.199C21.2105 10.4442 19.3233 10.8782 17.6222 11.6499L13.0407 8.21718C12.4532 7.77792 11.6058 8.18781 11.6058 8.91146V17.0412C10.4752 18.9639 9.82227 21.1869 9.82227 23.5541V27.0509C9.82227 33.7814 15.4414 39.2876 22.3073 39.2876H24.9826C31.8485 39.2876 37.4676 33.7814 37.4676 27.0509V23.5541C37.4676 21.1869 36.8146 18.9639 35.684 17.0412ZM30.3333 26.613C30.3333 30.2179 27.3241 33.1687 23.6449 33.1687C19.9658 33.1687 16.9566 30.2193 16.9566 26.613V23.1162C16.9566 19.5113 19.9658 16.5606 23.6449 16.5606C27.3241 16.5606 30.3333 19.5099 30.3333 23.1162V26.613Z" fill="#FF6000"/>
</svg>
