<svg width="19" height="20" viewBox="0 0 19 20" fill="none" xmlns="http://www.w3.org/2000/svg">
<path fill-rule="evenodd" clip-rule="evenodd" d="M14.3194 13.433C15.5664 11.8253 16.1541 9.80302 15.9629 7.77745C15.7717 5.75187 14.8161 3.87521 13.2904 2.52924C11.7646 1.18327 9.78344 0.469102 7.74984 0.53203C5.71624 0.594958 3.783 1.43025 2.34341 2.86798C0.902562 4.30671 0.0645358 6.2407 0.000103898 8.27585C-0.064328 10.311 0.649684 12.2941 1.99663 13.8211C3.34359 15.3481 5.2221 16.304 7.24938 16.4941C9.27665 16.6841 11.3001 16.094 12.9074 14.844L12.9504 14.889L17.1924 19.132C17.2853 19.2249 17.3956 19.2986 17.517 19.3489C17.6384 19.3992 17.7685 19.425 17.8999 19.425C18.0313 19.425 18.1614 19.3992 18.2828 19.3489C18.4042 19.2986 18.5145 19.2249 18.6074 19.132C18.7003 19.0391 18.774 18.9288 18.8243 18.8074C18.8746 18.686 18.9005 18.5559 18.9005 18.4245C18.9005 18.2931 18.8746 18.163 18.8243 18.0416C18.774 17.9202 18.7003 17.8099 18.6074 17.717L14.3644 13.475L14.3194 13.433ZM12.2434 4.28298C12.808 4.83846 13.257 5.50023 13.5646 6.23012C13.8722 6.96001 14.0322 7.74357 14.0354 8.5356C14.0386 9.32764 13.885 10.1125 13.5834 10.8448C13.2818 11.5772 12.8382 12.2426 12.2781 12.8027C11.718 13.3627 11.0526 13.8064 10.3203 14.108C9.5879 14.4096 8.80306 14.5632 8.01103 14.56C7.21899 14.5568 6.43543 14.3967 5.70554 14.0892C4.97565 13.7816 4.31389 13.3326 3.75841 12.768C2.64832 11.6397 2.02906 10.1184 2.03551 8.5356C2.04195 6.95278 2.67358 5.43663 3.79282 4.31739C4.91205 3.19816 6.4282 2.56653 8.01103 2.56008C9.59385 2.55364 11.1151 3.1729 12.2434 4.28298Z" fill="#7A7C83"/>
</svg>
