<svg width="16" height="18" viewBox="0 0 16 18" fill="none" xmlns="http://www.w3.org/2000/svg">
<path d="M11.5725 16.5209C9.58909 16.5209 7.97461 14.9064 7.97461 12.9229C7.97461 10.9395 9.58909 9.32501 11.5725 9.32501C13.556 9.32501 15.1705 10.9395 15.1705 12.9229C15.1705 14.9064 13.556 16.5209 11.5725 16.5209ZM11.5725 10.1475C10.0427 10.1475 8.79713 11.3931 8.79713 12.9229C8.79713 14.4528 10.0427 15.6984 11.5725 15.6984C13.1024 15.6984 14.3479 14.4528 14.3479 12.9229C14.3479 11.3931 13.1024 10.1475 11.5725 10.1475Z" fill="#BDBDBD"/>
<path d="M15.5918 17.4773C15.4861 17.4773 15.3803 17.4374 15.3004 17.3575L13.5144 15.5738C13.3546 15.414 13.3546 15.1531 13.5144 14.9933C13.6742 14.8335 13.935 14.8335 14.0948 14.9933L15.8809 16.777C16.0407 16.9368 16.0407 17.1977 15.8809 17.3575C15.801 17.4374 15.6952 17.4773 15.5895 17.4773H15.5918Z" fill="#BDBDBD"/>
<path d="M7.20361 8.81739C4.77366 8.81739 2.79492 6.841 2.79492 4.4087C2.79492 1.9764 4.77366 0 7.20361 0C9.63356 0 11.6123 1.9764 11.6123 4.4087C11.6123 6.841 9.63591 8.81739 7.20361 8.81739ZM7.20361 0.822518C5.22722 0.822518 3.61744 2.42996 3.61744 4.4087C3.61744 6.38744 5.22722 7.99487 7.20361 7.99487C9.18 7.99487 10.7898 6.38744 10.7898 4.4087C10.7898 2.42996 9.18235 0.822518 7.20361 0.822518Z" fill="#BDBDBD"/>
<path d="M8.58943 16.5255H0.411258C0.183304 16.5255 0 16.3422 0 16.1143C0 12.1403 3.23367 8.909 7.20525 8.909C7.83271 8.909 8.45312 8.9889 9.05474 9.1487C9.27329 9.20745 9.40489 9.43306 9.34614 9.65161C9.28739 9.87017 9.06414 10.0018 8.84323 9.94302C8.31212 9.80201 7.75986 9.73151 7.20525 9.73151C3.82353 9.73151 1.04812 12.3753 0.834267 15.703H8.58943C8.81738 15.703 9.00069 15.8863 9.00069 16.1143C9.00069 16.3422 8.81738 16.5255 8.58943 16.5255Z" fill="#BDBDBD"/>
</svg>
