<svg width="16" height="17" viewBox="0 0 16 17" fill="none" xmlns="http://www.w3.org/2000/svg">
<path d="M10.9259 15.597C9.05346 15.597 7.5293 14.0728 7.5293 12.2003C7.5293 10.3277 9.05346 8.80353 10.9259 8.80353C12.7984 8.80353 14.3226 10.3277 14.3226 12.2003C14.3226 14.0728 12.7984 15.597 10.9259 15.597ZM10.9259 9.58005C9.48165 9.58005 8.3058 10.7559 8.3058 12.2003C8.3058 13.6446 9.48165 14.8205 10.9259 14.8205C12.3702 14.8205 13.5461 13.6446 13.5461 12.2003C13.5461 10.7559 12.3702 9.58005 10.9259 9.58005Z" fill="#222222"/>
<path d="M14.7189 16.5C14.6191 16.5 14.5192 16.4622 14.4438 16.3868L12.7577 14.7029C12.6068 14.552 12.6068 14.3057 12.7577 14.1549C12.9085 14.004 13.1548 14.004 13.3057 14.1549L14.9918 15.8388C15.1427 15.9897 15.1427 16.2359 14.9918 16.3868C14.9164 16.4622 14.8165 16.5 14.7167 16.5H14.7189Z" fill="#222222"/>
<path d="M6.80074 8.3243C4.50672 8.3243 2.63867 6.45844 2.63867 4.16216C2.63867 1.86587 4.50672 0 6.80074 0C9.09475 0 10.9628 1.86587 10.9628 4.16216C10.9628 6.45844 9.09697 8.3243 6.80074 8.3243ZM6.80074 0.776521C4.93491 0.776521 3.41518 2.29407 3.41518 4.16216C3.41518 6.03024 4.93491 7.54778 6.80074 7.54778C8.66656 7.54778 10.1863 6.03024 10.1863 4.16216C10.1863 2.29407 8.66878 0.776521 6.80074 0.776521Z" fill="#222222"/>
<path d="M8.10892 15.6014H0.388252C0.173049 15.6014 0 15.4283 0 15.2131C0 11.4614 3.05277 8.4108 6.80218 8.4108C7.39454 8.4108 7.98025 8.48623 8.5482 8.6371C8.75453 8.69256 8.87877 8.90555 8.82331 9.11189C8.76784 9.31822 8.55708 9.44246 8.34853 9.38699C7.84713 9.25388 7.32576 9.18732 6.80218 9.18732C3.60964 9.18732 0.989488 11.6833 0.787597 14.8249H8.10892C8.32413 14.8249 8.49718 14.9979 8.49718 15.2131C8.49718 15.4283 8.32413 15.6014 8.10892 15.6014Z" fill="#222222"/>
</svg>
