<svg width="20" height="20" viewBox="0 0 20 20" fill="none" xmlns="http://www.w3.org/2000/svg">
<path d="M10.0131 19.3661C8.24618 19.3661 6.51693 18.9156 4.99744 18.0641L0.807431 19.15C0.64607 19.1917 0.471265 19.15 0.352934 19.0328C0.234602 18.9182 0.18619 18.749 0.231909 18.5927L1.35337 14.5357C-0.921824 10.739 -0.284446 5.95541 2.93471 2.83578C4.82264 1.00776 7.33449 0 10.005 0C12.6755 0 15.1874 1.00776 17.0753 2.83578C20.9749 6.61162 20.9749 12.7545 17.0753 16.5304C15.1874 18.3584 12.6782 19.3661 10.0077 19.3661H10.0131ZM5.06737 17.1163C5.15343 17.1163 5.23679 17.1397 5.3121 17.1814C6.72401 18.012 8.34838 18.4521 10.0131 18.4521C12.4308 18.4521 14.706 17.5407 16.4164 15.8846C19.9476 12.4655 19.9476 6.90067 16.4164 3.47898C14.706 1.82282 12.4308 0.908805 10.0104 0.908805C7.58998 0.908805 5.31479 1.82021 3.60436 3.47898C0.643383 6.34601 0.0920664 10.7676 2.26506 14.231C2.3323 14.3378 2.35112 14.4654 2.31885 14.5851L1.35606 18.0641L4.94904 17.1319C4.98938 17.1215 5.02972 17.1163 5.07006 17.1163H5.06737Z" fill="#222222"/>
<path d="M12.1543 14.2597C11.8504 14.2597 11.5599 14.1685 11.3152 13.9966L10.0109 13.08L8.70652 13.9966C8.21705 14.343 7.52051 14.343 7.02836 13.9966C6.52545 13.6451 6.31837 13.0227 6.50932 12.4499L7.00684 10.9656L5.70251 10.0489C5.1996 9.6948 4.99252 9.07244 5.18346 8.50216C5.37441 7.92927 5.92035 7.54648 6.54159 7.54648H8.1552L8.65273 6.06218C8.84367 5.4893 9.38961 5.10651 10.0109 5.10651C10.6321 5.10651 11.178 5.4919 11.369 6.06218L11.8665 7.54648H13.4801C14.1014 7.54648 14.6473 7.92927 14.8382 8.50216C15.0292 9.07504 14.8221 9.6948 14.3192 10.0489L13.0149 10.9656L13.5124 12.4499C13.7033 13.0227 13.4963 13.6425 12.9933 13.9966C12.7459 14.1685 12.4555 14.2597 12.1543 14.2597ZM10.0109 12.0593C10.1077 12.0593 10.2045 12.0879 10.2879 12.1452L11.8692 13.2571C12.0386 13.3743 12.2753 13.3743 12.442 13.2571C12.6141 13.1373 12.6841 12.9238 12.6195 12.7311L12.0144 10.9317C11.9526 10.7442 12.0198 10.5385 12.1865 10.4213L13.7679 9.3094C13.94 9.18962 14.0099 8.97609 13.9454 8.78079C13.8808 8.58548 13.6926 8.45528 13.4828 8.45528H11.5276C11.3233 8.45528 11.1431 8.32769 11.0812 8.1402L10.4761 6.34081C10.4116 6.14551 10.2233 6.01531 10.0135 6.01531C9.80377 6.01531 9.61552 6.14551 9.55097 6.34081L8.94587 8.1402C8.88401 8.32769 8.70114 8.45528 8.49944 8.45528H6.54427C6.33182 8.45528 6.14625 8.58548 6.0817 8.78079C6.01716 8.97609 6.08708 9.18701 6.2592 9.3094L7.84054 10.4213C8.00459 10.5385 8.07452 10.7442 8.01266 10.9317L7.40756 12.7311C7.34301 12.9264 7.41294 13.1373 7.58506 13.2571C7.75449 13.3743 7.99115 13.3743 8.15789 13.2571L9.73923 12.1452C9.8226 12.0879 9.91941 12.0593 10.0162 12.0593H10.0109Z" fill="#222222"/>
</svg>
