<svg width="22" height="18" viewBox="0 0 22 18" fill="none" xmlns="http://www.w3.org/2000/svg">
<g clip-path="url(#clip0_812_1473)">
<path d="M20.1363 18H1.8607C0.834207 18 0 17.1864 0 16.1853V1.88973C0 0.848213 0.869706 0 1.93761 0H6.7772C7.8451 0 8.71481 0.848213 8.71481 1.88973V1.95608H20.1363C21.1628 1.95608 21.997 2.76967 21.997 3.77368V16.1853C21.997 17.1864 21.1628 18 20.1363 18ZM1.93761 1.00978C1.44063 1.00978 1.03536 1.40503 1.03536 1.88973V16.1824C1.03536 16.6267 1.40514 16.9873 1.8607 16.9873H20.1363C20.5919 16.9873 20.9617 16.6267 20.9617 16.1824V3.77368C20.9617 3.32938 20.5919 2.96586 20.1363 2.96586H8.19712C7.91018 2.96586 7.67944 2.74082 7.67944 2.46097V1.88973C7.67944 1.40503 7.27417 1.00978 6.7772 1.00978H1.93761Z" fill="#BDBDBD"/>
<path d="M13.8002 10.8103H8.19737C7.91043 10.8103 7.67969 10.5853 7.67969 10.3055C7.67969 10.0256 7.91043 9.80057 8.19737 9.80057H13.8002C14.0871 9.80057 14.3178 10.0256 14.3178 10.3055C14.3178 10.5853 14.0871 10.8103 13.8002 10.8103Z" fill="#BDBDBD"/>
<path d="M10.9982 13.5425C10.7112 13.5425 10.4805 13.3175 10.4805 13.0376V7.57331C10.4805 7.29346 10.7112 7.06842 10.9982 7.06842C11.2851 7.06842 11.5158 7.29346 11.5158 7.57331V13.0376C11.5158 13.3175 11.2851 13.5425 10.9982 13.5425Z" fill="#BDBDBD"/>
</g>
<defs>
<clipPath id="clip0_812_1473">
<rect width="22" height="18" fill="white"/>
</clipPath>
</defs>
</svg>
