<svg width="21" height="19" viewBox="0 0 21 19" fill="none" xmlns="http://www.w3.org/2000/svg">
<path d="M18.5829 11.4821H2.4171C1.08431 11.4821 0 10.3988 0 9.06717V2.97344C0 2.69979 0.22025 2.47974 0.494151 2.47974H20.5058C20.7797 2.47974 21 2.69979 21 2.97344V9.06717C21 10.3988 19.9157 11.4821 18.5829 11.4821ZM0.988302 3.46715V9.06717C0.988302 9.85428 1.62929 10.4947 2.4171 10.4947H18.5829C19.3707 10.4947 20.0117 9.85428 20.0117 9.06717V3.46715H0.988302Z" fill="#BDBDBD"/>
<path d="M18.5829 18.6H2.4171C1.08431 18.6 0 17.5167 0 16.1851V12.1395C0 11.8659 0.22025 11.6458 0.494151 11.6458C0.768052 11.6458 0.988302 11.8659 0.988302 12.1395V16.1851C0.988302 16.9722 1.62929 17.6126 2.4171 17.6126H18.5829C19.3707 17.6126 20.0117 16.9722 20.0117 16.1851V12.1395C20.0117 11.8659 20.2319 11.6458 20.5058 11.6458C20.7797 11.6458 21 11.8659 21 12.1395V16.1851C21 17.5167 19.9157 18.6 18.5829 18.6Z" fill="#BDBDBD"/>
<path d="M10.4981 13.1692C10.2242 13.1692 10.0039 12.9492 10.0039 12.6755V9.78945C10.0039 9.5158 10.2242 9.29575 10.4981 9.29575C10.772 9.29575 10.9922 9.5158 10.9922 9.78945V12.6755C10.9922 12.9492 10.772 13.1692 10.4981 13.1692Z" fill="#BDBDBD"/>
<path d="M15.1586 3.07225C14.8846 3.07225 14.6644 2.8522 14.6644 2.57855C14.6644 1.70117 13.95 0.98741 13.0718 0.98741H7.9383C7.06012 0.98741 6.34572 1.70117 6.34572 2.57855C6.34572 2.8522 6.12547 3.07225 5.85157 3.07225C5.57767 3.07225 5.35742 2.8522 5.35742 2.57855C5.35742 1.15668 6.51515 0 7.9383 0H13.0718C14.495 0 15.6527 1.15668 15.6527 2.57855C15.6527 2.8522 15.4325 3.07225 15.1586 3.07225Z" fill="#BDBDBD"/>
</svg>
