<svg width="206" height="34" viewBox="0 0 206 34" fill="none" xmlns="http://www.w3.org/2000/svg">
<path d="M42.0826 0H37.6616C32.4901 0 28.2969 4.19863 28.2969 9.37699V24.6214C28.2969 29.7997 32.4901 33.9985 37.6616 33.9985H42.0826C47.2543 33.9985 51.4475 29.7997 51.4475 24.6214V9.37699C51.4475 4.19863 47.2543 0 42.0826 0ZM44.2456 24.6168C44.2456 26.6699 42.5836 28.334 40.533 28.334H39.2112C37.1608 28.334 35.4988 26.6699 35.4988 24.6168V9.38479C35.4988 7.33158 37.1608 5.66744 39.2112 5.66744H40.533C42.5836 5.66744 44.2456 7.33158 44.2456 9.38479V24.6168Z" fill="#003DD3"/>
<path d="M118.739 0H113.799C108.627 0 104.436 4.19707 104.436 9.37543V24.6246C104.436 29.8029 108.627 34 113.799 34H118.739C123.909 34 128.103 29.8029 128.103 24.6246V9.37543C128.103 4.19863 123.911 0 118.739 0ZM120.901 24.6246C120.901 26.673 119.242 28.3357 117.194 28.3357H115.345C113.299 28.3357 111.639 26.6747 111.639 24.6246V9.38011C111.639 7.33158 113.298 5.669 115.345 5.669H117.194C119.24 5.669 120.901 7.33002 120.901 9.38011V24.6246Z" fill="#003DD3"/>
<path d="M177.491 7.21081V1.0293H164.116H156.912V7.21081V13.3924V19.5739V26.7851V32.9668H164.116H177.491V26.7851H164.116V19.5739H176.408V13.3924H164.116V7.21081H177.491Z" fill="#003DD3"/>
<path d="M72.6318 16.1941C74.7215 15.0612 76.1416 12.847 76.1416 10.3016V8.24055C76.1416 4.25756 72.9174 1.0293 68.9397 1.0293H54.5342V32.9683H69.453C73.715 32.9683 77.1698 29.5088 77.1698 25.2414V22.1506C77.1698 19.3051 75.2457 16.9128 72.6318 16.1941ZM61.7346 6.17951H66.3648C67.7849 6.17951 68.9365 7.3327 68.9365 8.75465V10.3375C68.9365 11.3985 68.2874 12.3517 67.2994 12.7361L61.7346 14.9112V6.17951ZM69.9665 25.2397C69.9665 26.6618 68.8148 27.8149 67.3948 27.8149H61.7361V20.6614L66.4755 18.8442C68.1594 18.1988 69.9679 19.4442 69.9679 21.249L69.9665 25.2397Z" fill="#003DD3"/>
<path d="M104.438 1.0293H97.2358L87.4607 14.8206V1.0293H80.2588V32.9668H87.4607V19.1754L97.2358 32.9668H104.438L93.6341 16.9972L104.438 1.0293Z" fill="#003DD3"/>
<path d="M26.7523 1.0293H9.26026V7.21864H15.4338V27.8102H7.2019V20.7193H0V24.7133C0 29.8399 4.14636 33.9965 9.26026 33.9965H13.3754C18.4893 33.9965 22.6357 29.8399 22.6357 24.7133V7.21864H26.7509L26.7523 1.0293Z" fill="#003DD3"/>
<path d="M199.096 32.9682H205.785L202.609 18.8864V18.5442H202.532L198.583 1.0293H186.751L179.549 32.9682H186.237L188.096 24.7258H197.241L199.099 32.9682H199.096ZM189.488 18.5442L192.044 7.21084H193.289L195.846 18.5442H189.488Z" fill="#003DD3"/>
<path d="M149.915 20.6068C149.573 19.7489 148.999 19.0364 148.293 18.5067C151.012 17.4051 152.794 14.7627 152.794 11.8235V8.24055C152.794 4.25756 149.57 1.0293 145.592 1.0293H131.187V32.9682H138.388V22.4553L142.755 20.7161L147.649 32.9682H154.851L149.913 20.6099L149.915 20.6068ZM146.105 11.922C146.105 12.9939 145.442 13.9549 144.44 14.333L138.388 16.6159V6.17795H143.534C144.954 6.17795 146.105 7.33114 146.105 8.75309V11.922Z" fill="#003DD3"/>
</svg>
