<svg width="109" height="39" viewBox="0 0 109 39" fill="none" xmlns="http://www.w3.org/2000/svg">
<path d="M67.9261 2.3558C68.7548 3.15859 69.1433 4.14266 69.1433 5.2821C69.1433 6.42154 68.7289 7.37971 67.9261 8.20839C67.0974 9.01118 66.1393 9.42553 64.9998 9.42553C63.8604 9.42553 62.9022 9.01118 62.0994 8.20839C61.2966 7.40561 60.9082 6.42154 60.9082 5.2821C60.9082 4.14266 61.2966 3.18449 62.0994 2.3558C62.9022 1.55302 63.8604 1.13867 64.9998 1.13867C66.1393 1.13867 67.1233 1.55302 67.9261 2.3558Z" fill="#4E16FF"/>
<path d="M20.6912 37.7567H29.5478L17.1434 15.3045L28.3825 1.11328H19.5L8.28685 15.3045V1.11328H0V37.7567H8.28685V26.5177L11.9123 21.9081L20.6912 37.7567Z" fill="#4E16FF"/>
<path d="M99.2874 37.7567H108.17L95.7396 15.3045L106.979 1.11328H98.1221L86.883 15.3045V1.11328H78.6221V37.7567H86.883V26.5177L90.5344 21.9081L99.2874 37.7567Z" fill="#4E16FF"/>
<path d="M76.1093 30.6872H72.5874C70.8005 30.6872 68.9619 28.3566 68.8842 25.8446L68.5734 11.7829H61.4778V22.3227C61.4519 23.9024 61.0376 26.7769 58.9141 29.0299C56.2467 31.8267 51.8443 32.3964 48.8921 31.49C48.0894 31.257 47.3643 30.8944 46.7168 30.4542C48.5555 27.5797 49.928 23.9801 50.7567 19.8367C51.9997 13.5956 51.8184 5.749 47.7786 2.25299C45.2666 0.077689 42.9619 0 41.7447 0C40.6053 0 38.1969 0.310758 35.6332 2.95219C32.1113 6.57769 32.0854 15.4343 33.8463 22.2709C34.6232 25.3008 35.7368 27.9681 37.0834 30.2211C36.8762 30.3247 36.669 30.4024 36.4878 30.4542C35.9957 30.6096 35.4778 30.6872 34.934 30.6872H30.7646V37.7829C30.7646 37.7829 34.7009 37.7829 34.9599 37.7829C36.2029 37.7829 37.4459 37.6016 38.6113 37.239C39.7248 36.8765 40.7866 36.3586 41.8224 35.6853C43.3503 36.8765 45.0336 37.757 46.8722 38.3008C48.3483 38.741 50.0316 39 51.7666 39C55.9878 39 60.6232 37.5498 64.0674 33.9502C64.2228 33.7948 64.3523 33.6394 64.4818 33.4841C65.5176 34.9861 66.9678 36.3845 69.0396 37.1872C70.1272 37.6016 71.2925 37.8347 72.4838 37.8347C73.675 37.8347 76.1352 37.8347 76.1352 37.8347V30.739L76.1093 30.6872ZM43.7905 18.4382C43.3762 20.5618 42.7547 22.5299 41.9778 24.239C41.5117 23.1773 41.175 22.1673 40.9419 21.3386C38.9479 14.6056 39.8802 8.83068 40.7089 7.87251C40.7348 7.84661 40.7607 7.82072 40.8125 7.79482C41.4599 7.17331 42.4957 7.09562 43.1949 7.66534C44.0495 8.36454 44.9559 12.5857 43.7905 18.4382Z" fill="#4E16FF"/>
</svg>
