<svg width="171" height="18" viewBox="0 0 171 18" fill="none" xmlns="http://www.w3.org/2000/svg">
<g clip-path="url(#clip0_82_977)">
<g clip-path="url(#clip1_82_977)">
<path d="M16.4463 17.9516H18.5176C20.9592 17.9516 22.9585 15.9716 22.9585 13.5532V5.36013C22.9585 2.94168 20.9558 0.961719 18.5141 0.965092H16.4429C14.0012 0.965092 12.002 2.94505 12.002 5.3635V13.5566C12.002 15.975 14.0047 17.9516 16.4463 17.9516ZM15.6987 5.73116C15.6987 4.76311 16.4977 3.97045 17.4751 3.97045C18.4524 3.97045 19.2514 4.76311 19.2514 5.73116V13.1855C19.2514 14.1536 18.4559 14.9462 17.4751 14.9462C16.4977 14.9462 15.6987 14.1536 15.6987 13.1855V5.73116Z" fill="white"/>
<path d="M6.60617 1.14075V13.7457C6.6096 14.589 5.91689 14.9903 5.063 14.9903C4.20911 14.9903 3.51297 14.589 3.51297 13.7457V10.2243H0.0253906V14.5653C0.0253906 14.5653 0.0665419 17.9519 5.03899 17.9519C10.2412 17.9519 10.2789 14.653 10.2892 14.363V1.14075H6.60617Z" fill="white"/>
<path d="M76.7172 10.6498L81.5011 10.6464V7.77932H76.7172L76.7138 4.10273H81.8543V1.1311L73.0273 1.13448L73.0342 17.6656L81.9195 17.6623V14.6839L76.7172 14.6873V10.6498Z" fill="white"/>
<path d="M52.8745 0.9552C50.4329 0.9552 48.4336 2.93516 48.4336 5.35361V13.5467C48.4336 15.9651 50.4363 17.9417 52.8779 17.9417H54.9492C57.3909 17.9417 59.3901 15.9617 59.3901 13.5433V5.35024C59.3833 2.93179 57.384 0.9552 54.9424 0.9552H52.8711H52.8745ZM55.6899 13.1756C55.6899 14.1437 54.8909 14.9364 53.9136 14.9364C52.9362 14.9364 52.1372 14.1437 52.1372 13.1756V5.72127C52.1372 4.75322 52.9328 3.96056 53.9136 3.96056C54.8909 3.96056 55.6899 4.75322 55.6899 5.72127V13.1756Z" fill="white"/>
<path d="M48.4526 17.6719L43.8025 9.15503L48.36 1.14075H44.5432L40.308 8.89194L40.3046 1.14412H36.625L36.6319 17.6753L40.3115 17.6719L40.308 9.79928L44.5981 17.6719H48.4526Z" fill="white"/>
<path d="M91.4765 1.12659H85.6811L82.4473 17.6577H85.9451L86.6653 13.7653H90.5232L91.1576 17.6544H94.8132L91.4765 1.12659ZM87.2242 10.9286L88.6337 3.73393L90.05 10.9286H87.2242Z" fill="white"/>
<path d="M70.6834 11.7252C70.5566 11.2057 70.3268 10.8583 69.8536 10.6964C70.8686 10.2377 71.4413 9.22915 71.4413 7.77201V5.21526C71.4413 4.3855 71.1875 3.61308 70.7555 2.96883C70.0387 1.86248 68.8076 1.13391 67.4085 1.13391H61.1055L61.1089 17.6651H64.7954V12.2379L67.1547 11.5026L68.5333 17.6617H72.1237L70.6869 11.7218L70.6834 11.7252ZM67.7583 7.55276C67.7583 8.34542 67.2473 8.77379 66.6746 8.95931C66.1431 9.13133 64.7885 9.5597 64.7885 9.5597V3.74463H66.4963C67.1033 3.74463 67.7548 4.18649 67.7548 4.97578V7.55276H67.7583Z" fill="white"/>
<path d="M35.2164 12.0319C35.2164 12.0319 35.2816 9.79563 33.0663 9.27618C34.1088 8.85793 34.8632 7.88987 34.9524 6.7363L34.9627 4.58095C34.9627 3.18789 34.1156 1.99384 32.9051 1.46091C32.4696 1.26527 31.9895 1.15396 31.4854 1.14722H24.668L24.6714 17.6784H31.5231C31.5231 17.6784 32.1095 17.6817 32.6856 17.4895C34.1568 17.0206 35.2199 15.6579 35.2199 14.0456V12.0319H35.2164ZM28.3236 3.37341H30.0897C30.7515 3.39702 31.2899 3.92658 31.2899 4.57757V6.33154C31.2899 6.98253 30.7206 7.2996 30.0828 7.4986C29.2323 7.76507 28.3236 8.04841 28.3236 8.04841V3.37341ZM31.5128 13.6678C31.5128 14.393 30.9161 14.9833 30.1754 14.9833H28.327V10.6692L30.22 10.079C31.1767 10.079 31.5128 11.0538 31.5128 11.7553V13.6712V13.6678Z" fill="white"/>
<path d="M112.512 9.36077H108.613L108.081 10.9899H105.9L109.607 1.13062H111.507L115.235 10.9899H113.054L112.515 9.36077H112.512ZM109.144 7.77208H111.981L110.554 3.59966L109.144 7.77208Z" fill="white"/>
<path d="M102.933 1.12646H98.6152V10.9858H100.508V7.76793H102.933C104.747 7.76793 106.218 6.31416 106.218 4.52309V4.37131C106.218 2.58023 104.747 1.12646 102.933 1.12646ZM102.658 6.1219H100.508V2.76912H102.658C103.598 2.76912 104.356 3.52131 104.356 4.44551C104.356 5.36972 103.595 6.1219 102.658 6.1219Z" fill="white"/>
<path d="M122.208 10.9866H124.4L122.473 7.27962C123.409 6.70621 124.033 5.69093 124.033 4.52387V4.37208C124.033 2.58101 122.562 1.13062 120.744 1.13062H116.447V10.9899H118.344V7.76871H120.552L122.208 10.9899V10.9866ZM118.347 2.76653H120.47C121.409 2.76653 122.171 3.51871 122.171 4.44292C122.171 5.36712 121.409 6.11931 120.47 6.11931H118.347V2.76653Z" fill="white"/>
<path d="M160.169 10.9866H162.361L160.433 7.27962C161.37 6.70621 161.994 5.69093 161.994 4.52387V4.37208C161.994 2.58101 160.523 1.13062 158.705 1.13062H154.408V10.9899H156.305V7.76871H158.513L160.169 10.9899V10.9866ZM156.308 2.76653H158.431C159.37 2.76653 160.132 3.51871 160.132 4.44292C160.132 5.36712 159.37 6.11931 158.431 6.11931H156.308V2.76653Z" fill="white"/>
<path d="M143.217 10.9858H141.31L136.818 4.4725V10.9858H134.918V1.12646H136.818L141.31 7.63301V1.12646H143.21V10.9858H143.217Z" fill="white"/>
<path d="M168.825 8.41599C168.825 8.02809 168.688 7.73464 168.417 7.52551C168.146 7.31976 167.656 7.10051 166.946 6.87115C166.239 6.64178 165.677 6.41579 165.265 6.19317C164.141 5.58266 163.578 4.76301 163.578 3.73087C163.578 3.19456 163.729 2.71559 164.031 2.29734C164.333 1.87571 164.765 1.54853 165.331 1.31242C165.896 1.07631 166.531 0.958252 167.234 0.958252C167.937 0.958252 168.571 1.08643 169.127 1.34278C169.679 1.59912 170.111 1.96341 170.416 2.42889C170.721 2.89774 170.876 3.4273 170.876 4.02432H168.832C168.832 3.56897 168.688 3.2148 168.403 2.9652C168.119 2.71222 167.714 2.58742 167.199 2.58742C166.685 2.58742 166.311 2.69198 166.034 2.90448C165.756 3.11698 165.619 3.39357 165.619 3.74099C165.619 4.0648 165.78 4.33464 166.106 4.55389C166.431 4.77313 166.908 4.97551 167.539 5.16778C168.702 5.51857 169.549 5.95031 170.08 6.46976C170.612 6.9892 170.876 7.63345 170.876 8.40587C170.876 9.26599 170.55 9.94059 169.902 10.4263C169.254 10.9154 168.379 11.1583 167.282 11.1583C166.52 11.1583 165.824 11.02 165.197 10.74C164.569 10.46 164.093 10.0789 163.763 9.5898C163.434 9.10408 163.27 8.44635 163.27 7.80547H165.32C165.32 8.9017 165.975 9.54258 167.282 9.54258C167.769 9.54258 168.146 9.44476 168.42 9.24575C168.691 9.04674 168.828 8.77016 168.828 8.41599H168.825Z" fill="white"/>
<path d="M133.245 1.12646H124.949V2.75226H128.145V10.9858H130.049V2.75226H133.245V1.12646Z" fill="white"/>
<path d="M152.292 2.76575V1.12646H145.379V1.62567V2.76575V5.13698V6.71555V9.34988V10.9217V10.9892H152.292V9.34988H147.279V6.71555H151.706V5.13698H147.279V2.76575H152.292Z" fill="white"/>
</g>
</g>
<defs>
<clipPath id="clip0_82_977">
<rect width="170.85" height="17" fill="white" transform="translate(0.0253906 0.9552)"/>
</clipPath>
<clipPath id="clip1_82_977">
<rect width="170.85" height="17" fill="white" transform="translate(0.0253906 0.9552)"/>
</clipPath>
</defs>
</svg>
