<svg width="201" height="20" viewBox="0 0 201 20" fill="none" xmlns="http://www.w3.org/2000/svg">
<g clip-path="url(#clip0_586_3024)">
<path d="M19.3204 19.996H21.7572C24.6298 19.996 26.9818 17.6667 26.9818 14.8214V5.18254C26.9818 2.3373 24.6257 0.00793866 21.7532 0.0119069H19.3164C16.4439 0.0119069 14.0918 2.34127 14.0918 5.18651V14.8254C14.0918 17.6706 16.4479 19.996 19.3204 19.996ZM18.4409 5.61905C18.4409 4.48016 19.381 3.54762 20.5308 3.54762C21.6806 3.54762 22.6206 4.48016 22.6206 5.61905V14.3889C22.6206 15.5278 21.6846 16.4603 20.5308 16.4603C19.381 16.4603 18.4409 15.5278 18.4409 14.3889V5.61905Z" fill="white"/>
<path d="M7.7421 0.218262V15.0476C7.74613 16.0397 6.93117 16.5119 5.9266 16.5119C4.92202 16.5119 4.10303 16.0397 4.10303 15.0476V10.9048H0V16.0119C0 16.0119 0.0484133 19.996 5.89836 19.996C12.0186 19.996 12.063 16.1151 12.0751 15.7738V0.218262H7.7421Z" fill="white"/>
<path d="M90.2297 11.4048L95.8578 11.4008V8.02779H90.2297L90.2257 3.70239H96.2733V0.20636L85.8887 0.210328L85.8967 19.6587L96.35 19.6548V16.1508L90.2297 16.1548V11.4048Z" fill="white"/>
<path d="M62.1758 0C59.3033 0 56.9512 2.32937 56.9512 5.1746V14.8135C56.9512 17.6587 59.3073 19.9841 62.1798 19.9841H64.6166C67.4891 19.9841 69.8412 17.6548 69.8412 14.8095V5.17063C69.8331 2.3254 67.4811 0 64.6085 0H62.1717H62.1758ZM65.4881 14.377C65.4881 15.5159 64.548 16.4484 63.3982 16.4484C62.2484 16.4484 61.3084 15.5159 61.3084 14.377V5.60714C61.3084 4.46825 62.2444 3.53571 63.3982 3.53571C64.548 3.53571 65.4881 4.46825 65.4881 5.60714V14.377Z" fill="white"/>
<path d="M56.9695 19.6667L51.4988 9.64683L56.8606 0.218262H52.3702L47.3877 9.33731L47.3836 0.22223H43.0547L43.0628 19.6706L47.3917 19.6667L47.3877 10.4048L52.4348 19.6667H56.9695Z" fill="white"/>
<path d="M107.591 0.202393H100.773L96.9688 19.6508H101.084L101.931 15.0714H106.47L107.216 19.6468H111.517L107.591 0.202393ZM102.589 11.7341L104.247 3.26985L105.913 11.7341H102.589Z" fill="white"/>
<path d="M83.1295 12.6706C82.9803 12.0595 82.7099 11.6508 82.1532 11.4603C83.3474 10.9206 84.0211 9.73414 84.0211 8.01985V5.01191C84.0211 4.03572 83.7226 3.12699 83.2143 2.36906C82.3711 1.06747 80.9227 0.210327 79.2766 0.210327H71.8613L71.8654 19.6587H76.2024V13.2738L78.9781 12.4087L80.5999 19.6548H84.824L83.1336 12.6667L83.1295 12.6706ZM79.6882 7.76191C79.6882 8.69445 79.087 9.19842 78.4133 9.41668C77.7879 9.61906 76.1943 10.123 76.1943 10.123V3.28176H78.2035C78.9176 3.28176 79.6841 3.8016 79.6841 4.73017V7.76191H79.6882Z" fill="white"/>
<path d="M41.4021 13.0318C41.4021 13.0318 41.4788 10.4008 38.8725 9.78969C40.099 9.29763 40.9866 8.15874 41.0915 6.80159L41.1036 4.26588C41.1036 2.62699 40.1071 1.22223 38.6829 0.595244C38.1705 0.365085 37.6057 0.234133 37.0127 0.226196H28.9922L28.9962 19.6746H37.057C37.057 19.6746 37.7469 19.6786 38.4247 19.4524C40.1555 18.9008 41.4062 17.2976 41.4062 15.4008V13.0318H41.4021ZM33.2929 2.84524H35.3706C36.1493 2.87302 36.7827 3.49604 36.7827 4.26191V6.3254C36.7827 7.09128 36.113 7.46429 35.3626 7.69842C34.362 8.01191 33.2929 8.34524 33.2929 8.34524V2.84524ZM37.0449 14.9564C37.0449 15.8095 36.3429 16.504 35.4715 16.504H33.2969V11.4286L35.524 10.7341C36.6496 10.7341 37.0449 11.881 37.0449 12.7064V14.9603V14.9564Z" fill="white"/>
<path d="M132.337 9.8889H127.75L127.125 11.8056H124.559L128.92 0.20636H131.155L135.54 11.8056H132.974L132.341 9.8889H132.337ZM128.375 8.01985H131.712L130.033 3.11112L128.375 8.01985Z" fill="white"/>
<path d="M121.07 0.202393H115.99V11.8016H118.217V8.01588H121.07C123.204 8.01588 124.935 6.30557 124.935 4.19842V4.01985C124.935 1.91271 123.204 0.202393 121.07 0.202393ZM120.747 6.07938H118.217V2.13493H120.747C121.852 2.13493 122.744 3.01985 122.744 4.10715C122.744 5.19446 121.848 6.07938 120.747 6.07938Z" fill="white"/>
<path d="M143.747 11.8016H146.325L144.057 7.44049C145.159 6.76588 145.893 5.57144 145.893 4.19842V4.01985C145.893 1.91271 144.162 0.20636 142.024 0.20636H136.969V11.8056H139.2V8.01588H141.798L143.747 11.8056V11.8016ZM139.204 2.13096H141.701C142.807 2.13096 143.702 3.01588 143.702 4.10318C143.702 5.19049 142.807 6.07541 141.701 6.07541H139.204V2.13096Z" fill="white"/>
<path d="M188.405 11.8016H190.983L188.715 7.44049C189.817 6.76588 190.551 5.57144 190.551 4.19842V4.01985C190.551 1.91271 188.82 0.20636 186.682 0.20636H181.627V11.8056H183.858V8.01588H186.456L188.405 11.8056V11.8016ZM183.862 2.13096H186.359C187.465 2.13096 188.36 3.01588 188.36 4.10318C188.36 5.19049 187.465 6.07541 186.359 6.07541H183.862V2.13096Z" fill="white"/>
<path d="M168.463 11.8016H166.219L160.934 4.1389V11.8016H158.699V0.202393H160.934L166.219 7.85715V0.202393H168.455V11.8016H168.463Z" fill="white"/>
<path d="M198.587 8.77778C198.587 8.32143 198.425 7.97619 198.106 7.73016C197.788 7.48809 197.211 7.23016 196.376 6.96032C195.545 6.69048 194.883 6.4246 194.399 6.1627C193.076 5.44444 192.414 4.48016 192.414 3.26587C192.414 2.63492 192.591 2.07143 192.946 1.57936C193.301 1.08333 193.81 0.698412 194.475 0.420634C195.141 0.142856 195.888 0.00396729 196.715 0.00396729C197.542 0.00396729 198.288 0.154761 198.942 0.456348C199.591 0.757936 200.099 1.18651 200.459 1.73413C200.818 2.28571 200.999 2.90873 200.999 3.61111H198.595C198.595 3.0754 198.425 2.65873 198.09 2.36508C197.755 2.06746 197.279 1.92063 196.674 1.92063C196.069 1.92063 195.629 2.04365 195.303 2.29365C194.976 2.54365 194.814 2.86905 194.814 3.27778C194.814 3.65873 195.004 3.97619 195.387 4.23413C195.771 4.49206 196.331 4.73016 197.074 4.95635C198.441 5.36905 199.438 5.87698 200.063 6.48809C200.689 7.09921 200.999 7.85714 200.999 8.76587C200.999 9.77778 200.616 10.5714 199.853 11.1429C199.091 11.7183 198.062 12.004 196.771 12.004C195.875 12.004 195.056 11.8413 194.318 11.5119C193.58 11.1825 193.019 10.7341 192.632 10.1587C192.244 9.5873 192.051 8.81349 192.051 8.05952H194.463C194.463 9.34921 195.234 10.1032 196.771 10.1032C197.344 10.1032 197.788 9.98809 198.111 9.75397C198.429 9.51984 198.591 9.19444 198.591 8.77778H198.587Z" fill="white"/>
<path d="M156.73 0.202393H146.971V2.11509H150.731V11.8016H152.97V2.11509H156.73V0.202393Z" fill="white"/>
<path d="M179.137 2.13096V0.202393H171.004V0.789694V2.13096V4.92065V6.77779V9.877V11.7262V11.8056H179.137V9.877H173.239V6.77779H178.447V4.92065H173.239V2.13096H179.137Z" fill="white"/>
</g>
<defs>
<clipPath id="clip0_586_3024">
<rect width="201" height="20" fill="white"/>
</clipPath>
</defs>
</svg>
