<svg width="200" height="20" viewBox="0 0 200 20" fill="none" xmlns="http://www.w3.org/2000/svg">
<g clip-path="url(#clip0_132_495)">
<g clip-path="url(#clip1_132_495)">
<path d="M19.2241 19.8963H21.6488C24.507 19.8963 26.8474 17.5785 26.8474 14.7474V5.15651C26.8474 2.32543 24.503 0.00765321 21.6448 0.0116017H19.2201C16.3619 0.0116017 14.0215 2.32938 14.0215 5.16046V14.7514C14.0215 17.5825 16.3659 19.8963 19.2241 19.8963ZM18.349 5.59085C18.349 4.45763 19.2843 3.52973 20.4284 3.52973C21.5725 3.52973 22.5079 4.45763 22.5079 5.59085V14.3171C22.5079 15.4503 21.5765 16.3782 20.4284 16.3782C19.2843 16.3782 18.349 15.4503 18.349 14.3171V5.59085Z" fill="white"/>
<path d="M7.70358 0.217041V14.9726C7.70759 15.9598 6.89669 16.4296 5.89711 16.4296C4.89753 16.4296 4.08262 15.9598 4.08262 14.9726V10.8504H0V15.9321C0 15.9321 0.0481724 19.8964 5.86901 19.8964C11.9588 19.8964 12.003 16.0348 12.015 15.6952V0.217041H7.70358Z" fill="white"/>
<path d="M89.7804 11.3486L95.3805 11.3447V7.98845H89.7804L89.7764 3.68457H95.7939V0.205933L85.4609 0.209881L85.469 19.5615L95.8702 19.5576V16.0711L89.7804 16.075V11.3486Z" fill="white"/>
<path d="M61.8666 0C59.0083 0 56.668 2.31778 56.668 5.14886V14.7398C56.668 17.5709 59.0124 19.8847 61.8706 19.8847H64.2953C67.1535 19.8847 69.4939 17.5669 69.4939 14.7358V5.14491C69.4859 2.31383 67.1455 0 64.2872 0H61.8626H61.8666ZM65.1624 14.3055C65.1624 15.4387 64.227 16.3666 63.0829 16.3666C61.9388 16.3666 61.0035 15.4387 61.0035 14.3055V5.57925C61.0035 4.44602 61.9348 3.51812 63.0829 3.51812C64.227 3.51812 65.1624 4.44602 65.1624 5.57925V14.3055Z" fill="white"/>
<path d="M56.6874 19.5687L51.2439 9.5987L56.579 0.217041H52.111L47.1532 9.29072L47.1492 0.22099H42.8418L42.8498 19.5726L47.1572 19.5687L47.1532 10.3529L52.1752 19.5687H56.6874Z" fill="white"/>
<path d="M107.056 0.200806H100.272L96.4863 19.5525H100.581L101.424 14.9959H105.94L106.683 19.5485H110.962L107.056 0.200806ZM102.078 11.6752L103.728 3.253L105.386 11.6752H102.078Z" fill="white"/>
<path d="M82.716 12.6074C82.5675 11.9994 82.2986 11.5927 81.7446 11.4031C82.9328 10.8661 83.6032 9.68553 83.6032 7.97978V4.9868C83.6032 4.01547 83.3062 3.11126 82.8003 2.3571C81.9613 1.06198 80.5202 0.209106 78.8823 0.209106H71.5039L71.5079 19.5608H75.8234V13.2076L78.5853 12.3468L80.199 19.5568H84.4021L82.7201 12.6035L82.716 12.6074ZM79.2918 7.72312C79.2918 8.65102 78.6936 9.15248 78.0232 9.36965C77.401 9.57103 75.8153 10.0725 75.8153 10.0725V3.26525H77.8145C78.525 3.26525 79.2878 3.78251 79.2878 4.70646V7.72312H79.2918Z" fill="white"/>
<path d="M41.1959 12.9667C41.1959 12.9667 41.2721 10.3488 38.6789 9.74076C39.8992 9.25115 40.7824 8.11793 40.8868 6.76754L40.8988 4.24444C40.8988 2.6137 39.9072 1.21593 38.4902 0.592065C37.9803 0.363051 37.4183 0.232751 36.8282 0.224854H28.8477L28.8517 19.5765H36.8724C36.8724 19.5765 37.5588 19.5805 38.2333 19.3554C39.9554 18.8065 41.1999 17.2113 41.1999 15.324V12.9667H41.1959ZM33.127 2.83087H35.1944C35.9692 2.85851 36.5994 3.47843 36.5994 4.24049V6.29371C36.5994 7.05578 35.933 7.42694 35.1863 7.6599C34.1908 7.97183 33.127 8.30351 33.127 8.30351V2.83087ZM36.8603 14.8817C36.8603 15.7307 36.1618 16.4216 35.2947 16.4216H33.131V11.3715L35.3469 10.6805C36.4669 10.6805 36.8603 11.8216 36.8603 12.6429V14.8857V14.8817Z" fill="white"/>
<path d="M131.681 9.83957H127.117L126.495 11.7467H123.941L128.281 0.2052H130.505L134.869 11.7467H132.315L131.685 9.83957H131.681ZM127.739 7.97982H131.059L129.389 3.09551L127.739 7.97982Z" fill="white"/>
<path d="M120.468 0.200562H115.414V11.7421H117.63V7.97518H120.468C122.592 7.97518 124.314 6.27337 124.314 4.17671V3.99903C124.314 1.90237 122.592 0.200562 120.468 0.200562ZM120.147 6.04831H117.63V2.12349H120.147C121.247 2.12349 122.134 3.004 122.134 4.0859C122.134 5.16779 121.243 6.04831 120.147 6.04831Z" fill="white"/>
<path d="M143.033 11.7427H145.598L143.342 7.40334C144.438 6.73209 145.169 5.54359 145.169 4.1774V3.99972C145.169 1.90306 143.447 0.2052 141.319 0.2052H136.289V11.7467H138.509V7.97587H141.094L143.033 11.7467V11.7427ZM138.513 2.12023H140.998C142.098 2.12023 142.989 3.00075 142.989 4.08264C142.989 5.16453 142.098 6.04505 140.998 6.04505H138.513V2.12023Z" fill="white"/>
<path d="M187.469 11.7427H190.034L187.778 7.40334C188.874 6.73209 189.604 5.54359 189.604 4.1774V3.99972C189.604 1.90306 187.882 0.2052 185.755 0.2052H180.725V11.7467H182.945V7.97587H185.53L187.469 11.7467V11.7427ZM182.949 2.12023H185.433C186.533 2.12023 187.425 3.00075 187.425 4.08264C187.425 5.16453 186.533 6.04505 185.433 6.04505H182.949V2.12023Z" fill="white"/>
<path d="M167.625 11.7421H165.393L160.134 4.11748V11.7421H157.91V0.200562H160.134L165.393 7.81724V0.200562H167.617V11.7421H167.625Z" fill="white"/>
<path d="M197.601 8.73358C197.601 8.2795 197.44 7.93598 197.123 7.69117C196.806 7.45031 196.232 7.19366 195.401 6.92516C194.574 6.65666 193.916 6.39211 193.434 6.13151C192.117 5.41683 191.459 4.45734 191.459 3.24909C191.459 2.62128 191.636 2.06059 191.989 1.57098C192.342 1.07741 192.848 0.694407 193.51 0.418012C194.173 0.141616 194.915 0.00341797 195.738 0.00341797C196.561 0.00341797 197.304 0.153461 197.954 0.453548C198.601 0.753635 199.106 1.18007 199.464 1.72497C199.821 2.27381 200.002 2.89373 200.002 3.59261H197.609C197.609 3.05957 197.44 2.64497 197.107 2.35278C196.774 2.05664 196.3 1.91055 195.698 1.91055C195.096 1.91055 194.658 2.03295 194.333 2.28171C194.008 2.53047 193.848 2.85424 193.848 3.26094C193.848 3.64 194.036 3.95588 194.418 4.21253C194.799 4.46918 195.357 4.70609 196.096 4.93116C197.456 5.3418 198.448 5.84721 199.07 6.45529C199.692 7.06336 200.002 7.81752 200.002 8.72173C200.002 9.7286 199.62 10.5183 198.861 11.0869C198.103 11.6594 197.079 11.9437 195.794 11.9437C194.903 11.9437 194.088 11.7818 193.354 11.4541C192.619 11.1264 192.061 10.6802 191.676 10.1077C191.29 9.53907 191.098 8.76911 191.098 8.0189H193.498C193.498 9.30216 194.265 10.0524 195.794 10.0524C196.365 10.0524 196.806 9.93787 197.127 9.70491C197.444 9.47195 197.605 9.14817 197.605 8.73358H197.601Z" fill="white"/>
<path d="M155.951 0.200562H146.24V2.10374H149.982V11.7421H152.21V2.10374H155.951V0.200562Z" fill="white"/>
<path d="M178.247 2.11954V0.200562H170.154V0.784941V2.11954V4.89534V6.74324V9.82703V11.667V11.746H178.247V9.82703H172.378V6.74324H177.561V4.89534H172.378V2.11954H178.247Z" fill="white"/>
</g>
</g>
<defs>
<clipPath id="clip0_132_495">
<rect width="200" height="19.9005" fill="white"/>
</clipPath>
<clipPath id="clip1_132_495">
<rect width="200" height="19.9005" fill="white"/>
</clipPath>
</defs>
</svg>
