<svg width="171" height="17" viewBox="0 0 171 17" fill="none" xmlns="http://www.w3.org/2000/svg">
<g clip-path="url(#clip0_872_5900)">
<g clip-path="url(#clip1_872_5900)">
<path d="M16.4346 16.9963H18.5077C20.9515 16.9963 22.9525 15.0163 22.9525 12.5979V4.40481C22.9525 1.98636 20.948 0.00639691 18.5042 0.00976993H16.4311C13.9874 0.00976993 11.9863 1.98973 11.9863 4.40818V12.6012C11.9863 15.0197 13.9908 16.9963 16.4346 16.9963ZM15.6863 4.77584C15.6863 3.80779 16.4861 3.01513 17.4643 3.01513C18.4425 3.01513 19.2422 3.80779 19.2422 4.77584V12.2302C19.2422 13.1983 18.4459 13.9909 17.4643 13.9909C16.4861 13.9909 15.6863 13.1983 15.6863 12.2302V4.77584Z" fill="white"/>
<path d="M6.58558 0.185547V12.7905C6.58902 13.6338 5.89569 14.0351 5.04105 14.0351C4.18641 14.0351 3.48966 13.6338 3.48966 12.7905V9.26908H-0.000976562V13.6101C-0.000976562 13.6101 0.0402109 16.9967 5.01703 16.9967C10.2238 16.9967 10.2616 13.6978 10.2719 13.4078V0.185547H6.58558Z" fill="white"/>
<path d="M76.7586 9.69443L81.5466 9.69106V6.824H76.7586L76.7551 3.14741H81.9001V0.175781L73.0654 0.179154L73.0723 16.7103L81.9654 16.7069V13.7286L76.7586 13.7319V9.69443Z" fill="white"/>
<path d="M52.895 0C50.4512 0 48.4502 1.97996 48.4502 4.39841V12.5915C48.4502 15.0099 50.4546 16.9865 52.8984 16.9865H54.9715C57.4153 16.9865 59.4164 15.0065 59.4164 12.5881V4.39504C59.4095 1.97659 57.4085 0 54.9647 0H52.8916H52.895ZM55.7129 12.2204C55.7129 13.1885 54.9132 13.9812 53.935 13.9812C52.9568 13.9812 52.1571 13.1885 52.1571 12.2204V4.76607C52.1571 3.79802 52.9534 3.00536 53.935 3.00536C54.9132 3.00536 55.7129 3.79802 55.7129 4.76607V12.2204Z" fill="white"/>
<path d="M48.4678 16.7167L43.8137 8.19983L48.3752 0.185547H44.555L40.3162 7.93674L40.3127 0.18892H36.6299L36.6367 16.7201L40.3196 16.7167L40.3162 8.84408L44.61 16.7167H48.4678Z" fill="white"/>
<path d="M91.5313 0.171875H85.7308L82.4941 16.703H85.9951L86.7159 12.8106H90.5772L91.2121 16.6997H94.871L91.5313 0.171875ZM87.2753 9.97386L88.686 2.77922L90.1035 9.97386H87.2753Z" fill="white"/>
<path d="M70.7202 10.77C70.5932 10.2505 70.3632 9.90312 69.8896 9.74121C70.9055 9.28248 71.4787 8.27395 71.4787 6.81681V4.26006C71.4787 3.4303 71.2247 2.65788 70.7922 2.01363C70.0749 0.907282 68.8427 0.178711 67.4423 0.178711H61.1338L61.1372 16.7099H64.8269V11.2827L67.1883 10.5474L68.5681 16.7065H72.1617L70.7236 10.7666L70.7202 10.77ZM67.7924 6.59756C67.7924 7.39022 67.281 7.81859 66.7078 8.00411C66.1758 8.17613 64.8201 8.6045 64.8201 8.6045V2.78943H66.5293C67.1369 2.78943 67.789 3.23129 67.789 4.02058V6.59756H67.7924Z" fill="white"/>
<path d="M35.2208 11.0771C35.2208 11.0771 35.286 8.84079 33.0688 8.32135C34.1122 7.9031 34.8673 6.93504 34.9565 5.78147L34.9668 3.62611C34.9668 2.23306 34.119 1.03901 32.9074 0.506073C32.4715 0.310438 31.991 0.199129 31.4865 0.192383H24.6631L24.6665 16.7235H31.5242C31.5242 16.7235 32.1111 16.7269 32.6878 16.5346C34.1602 16.0658 35.2242 14.7031 35.2242 13.0908V11.0771H35.2208ZM28.3219 2.41857H30.0895C30.752 2.44218 31.2908 2.97175 31.2908 3.62274V5.37671C31.2908 6.0277 30.7211 6.34476 30.0827 6.54377C29.2315 6.81024 28.3219 7.09357 28.3219 7.09357V2.41857ZM31.5139 12.713C31.5139 13.4382 30.9167 14.0285 30.1753 14.0285H28.3253V9.7144L30.22 9.12413C31.1776 9.12413 31.5139 10.0989 31.5139 10.8005V12.7164V12.713Z" fill="white"/>
<path d="M112.586 8.40496H108.684L108.152 10.0341H105.969L109.679 0.174805H111.581L115.311 10.0341H113.129L112.59 8.40496H112.586ZM109.216 6.81627H112.054L110.626 2.64385L109.216 6.81627Z" fill="white"/>
<path d="M102.999 0.170898H98.6777V10.0302H100.572V6.81237H102.999C104.815 6.81237 106.287 5.3586 106.287 3.56753V3.41574C106.287 1.62467 104.815 0.170898 102.999 0.170898ZM102.724 5.16633H100.572V1.81356H102.724C103.665 1.81356 104.423 2.56574 104.423 3.48995C104.423 4.41415 103.661 5.16633 102.724 5.16633Z" fill="white"/>
<path d="M122.292 10.0308H124.485L122.556 6.32381C123.493 5.7504 124.118 4.73512 124.118 3.56806V3.41627C124.118 1.6252 122.645 0.174805 120.826 0.174805H116.525V10.0341H118.423V6.8129H120.634L122.292 10.0341V10.0308ZM118.427 1.81072H120.551C121.492 1.81072 122.254 2.5629 122.254 3.48711C122.254 4.41131 121.492 5.1635 120.551 5.1635H118.427V1.81072Z" fill="white"/>
<path d="M160.285 10.0308H162.478L160.549 6.32381C161.486 5.7504 162.111 4.73512 162.111 3.56806V3.41627C162.111 1.6252 160.638 0.174805 158.819 0.174805H154.519V10.0341H156.417V6.8129H158.627L160.285 10.0341V10.0308ZM156.42 1.81072H158.545C159.485 1.81072 160.247 2.5629 160.247 3.48711C160.247 4.41131 159.485 5.1635 158.545 5.1635H156.42V1.81072Z" fill="white"/>
<path d="M143.318 10.0302H141.41L136.913 3.51693V10.0302H135.012V0.170898H136.913L141.41 6.67745V0.170898H143.311V10.0302H143.318Z" fill="white"/>
<path d="M168.949 7.46067C168.949 7.07277 168.812 6.77932 168.541 6.57019C168.269 6.36444 167.779 6.14519 167.068 5.91583C166.361 5.68646 165.798 5.46047 165.386 5.23785C164.26 4.62733 163.698 3.80769 163.698 2.77555C163.698 2.23924 163.849 1.76027 164.151 1.34202C164.453 0.92039 164.885 0.593207 165.451 0.357096C166.018 0.120985 166.653 0.00292969 167.356 0.00292969C168.06 0.00292969 168.695 0.131104 169.251 0.387453C169.804 0.643803 170.236 1.00809 170.542 1.47356C170.847 1.94241 171.001 2.47198 171.001 3.069H168.956C168.956 2.61364 168.812 2.25948 168.527 2.00987C168.242 1.7569 167.837 1.6321 167.322 1.6321C166.807 1.6321 166.433 1.73666 166.155 1.94916C165.877 2.16166 165.74 2.43825 165.74 2.78567C165.74 3.10948 165.901 3.37932 166.227 3.59856C166.553 3.81781 167.03 4.02019 167.662 4.21245C168.825 4.56325 169.673 4.99499 170.205 5.51444C170.737 6.03388 171.001 6.67813 171.001 7.45055C171.001 8.31067 170.675 8.98527 170.027 9.47098C169.378 9.96007 168.503 10.2029 167.404 10.2029C166.642 10.2029 165.946 10.0646 165.318 9.78467C164.69 9.50471 164.212 9.12356 163.883 8.63448C163.553 8.14876 163.389 7.49102 163.389 6.85015H165.441C165.441 7.94638 166.097 8.58725 167.404 8.58725C167.892 8.58725 168.269 8.48944 168.544 8.29043C168.815 8.09142 168.952 7.81483 168.952 7.46067H168.949Z" fill="white"/>
<path d="M133.338 0.170898H125.035V1.79669H128.234V10.0302H130.139V1.79669H133.338V0.170898Z" fill="white"/>
<path d="M152.401 1.81018V0.170898H145.481V0.670105V1.81018V4.18141V5.75999V8.39431V9.96614V10.0336H152.401V8.39431H147.383V5.75999H151.814V4.18141H147.383V1.81018H152.401Z" fill="white"/>
</g>
</g>
<defs>
<clipPath id="clip0_872_5900">
<rect width="170.944" height="17" fill="white"/>
</clipPath>
<clipPath id="clip1_872_5900">
<rect width="171" height="17" fill="white"/>
</clipPath>
</defs>
</svg>
