<svg width="220" height="30" viewBox="0 0 220 30" fill="none" xmlns="http://www.w3.org/2000/svg">
<path d="M25.4295 0L14.6211 16.2892V29.9759H23.0893L33.8977 13.6868V0H25.4295Z" fill="#664FFF"/>
<path d="M10.8084 0L0 16.2892V29.9759H8.4682L19.2766 13.6868V0H10.8084Z" fill="#664FFF"/>
<path d="M73.585 0H80.3643V29.9759H73.585V0Z" fill="black"/>
<path d="M83.2578 0H90.0372L101.666 18.7952V0H108.445V29.9759H101.811L90.0613 10.9639V29.9759H83.2819V0H83.2578Z" fill="black"/>
<path d="M45.502 0H52.2813L63.91 18.7952V0H70.6894V29.9759H64.0548L52.3055 10.9639V29.9759H45.5261V0H45.502Z" fill="black"/>
<path d="M111.341 0H129.725V5.80723H118.096V11.6145H128.76V17.4217H118.096V24.1928H129.725V30H111.341V0.0240969V0Z" fill="black"/>
<path d="M136.505 0H143.284V13.3012L155.878 9.39759V0H162.657V29.9759H155.878V16L143.284 19.9036V29.9759H136.505V0Z" fill="black"/>
<path d="M165.552 0H172.331V29.9759H165.552V0Z" fill="black"/>
<path d="M191.39 17.0361C195.033 15.6386 198.001 13.2048 198.001 9.22892C198.001 5.95181 196.601 3.51807 194.527 2.0241C192.452 0.530121 189.919 0 186.686 0H175.25V29.9759H182.029V19.9036L185.238 18.9157L192.404 30H199.955L191.39 17.0602V17.0361ZM189.822 11.2771C189.677 11.3494 189.533 11.4217 189.364 11.4699H189.267C186.855 12.241 184.442 12.988 182.029 13.7349V5.78313H188.568C190.039 5.78313 191.221 7.10843 191.221 8.57831C191.221 9.85542 190.666 10.8193 189.822 11.2771Z" fill="black"/>
<path d="M201.379 0H219.763V5.80723H208.134V11.6145H218.774V17.4217H208.134V24.1928H219.763V30H201.379V0.0240969V0Z" fill="black"/>
</svg>
