<svg width="174" height="131" viewBox="0 0 174 131" fill="none" xmlns="http://www.w3.org/2000/svg">
<g clip-path="url(#clip0_935_751)">
<path d="M148.919 24.4795H8.83984V122.399H148.919V24.4795Z" fill="url(#paint0_linear_935_751)"/>
<path d="M142.119 31.2803H17V110.16H142.119V31.2803Z" fill="white"/>
<path d="M89.08 118.319V122.399H70.0401V118.319H3.40039C3.40039 125.079 8.88117 130.559 15.6403 130.559H143.48C150.239 130.559 155.72 125.079 155.72 118.319H89.08Z" fill="url(#paint1_linear_935_751)"/>
<path d="M128.519 0H30.5996V110.159H128.519V0Z" fill="url(#paint2_linear_935_751)"/>
<path d="M77.5195 25.1602H112.879" stroke="#5A6172" stroke-width="1.35999" stroke-linejoin="round"/>
<path d="M46.2402 25.1602H62.5602" stroke="#5A6172" stroke-width="1.35999" stroke-linejoin="round"/>
<path d="M46.2402 40.1201H88.4" stroke="#5A6172" stroke-width="1.35999" stroke-linejoin="round"/>
<path d="M46.2402 55.0801H73.4401" stroke="#5A6172" stroke-width="1.35999" stroke-linejoin="round"/>
<path d="M46.2402 85.2441H68.7345" stroke="#5A6172" stroke-width="4.07998" stroke-miterlimit="10" stroke-dasharray="4.08 4.08"/>
<path d="M168.426 15.3805L172.815 21.3696C174.464 23.6182 173.974 26.7927 171.726 28.4409L161.656 35.8215L151.277 21.6605L161.346 14.2799C163.595 12.6317 166.769 13.1209 168.418 15.3695L168.426 15.3805Z" fill="url(#paint3_linear_935_751)"/>
<path d="M89.2418 75.6559L84.0059 68.5023L151.135 21.6777L156.371 28.8177L89.2418 75.6559Z" fill="url(#paint4_linear_935_751)"/>
<path opacity="0.5" d="M94.2889 82.3743L83.9121 68.2167L151.259 21.6777L161.636 35.8489L94.2889 82.3743Z" fill="#829CFF"/>
<path d="M94.2882 82.3889L86.2506 83.5857L74.9219 85.2449L80.1715 75.3033L83.9114 68.2178L94.2882 82.3889Z" fill="white"/>
<path d="M86.2506 83.5851L74.9219 85.2443L80.1715 75.3027L86.2506 83.5851Z" fill="#5A6172"/>
</g>
<defs>
<linearGradient id="paint0_linear_935_751" x1="78.8795" y1="2.71959" x2="78.8795" y2="154.576" gradientUnits="userSpaceOnUse">
<stop stop-color="#A6B9FB"/>
<stop offset="1" stop-color="white"/>
</linearGradient>
<linearGradient id="paint1_linear_935_751" x1="5.82118" y1="15.1366" x2="87.4208" y2="131.457" gradientUnits="userSpaceOnUse">
<stop stop-color="#A5B9FC"/>
<stop offset="1" stop-color="#778EFE"/>
</linearGradient>
<linearGradient id="paint2_linear_935_751" x1="104.882" y1="115.491" x2="11.3557" y2="-107.671" gradientUnits="userSpaceOnUse">
<stop stop-color="white"/>
<stop offset="1" stop-color="#A6B9FB"/>
</linearGradient>
<linearGradient id="paint3_linear_935_751" x1="122.399" y1="10.8489" x2="174.949" y2="28.4472" gradientUnits="userSpaceOnUse">
<stop stop-color="#A5B9FC"/>
<stop offset="1" stop-color="#788FFE"/>
</linearGradient>
<linearGradient id="paint4_linear_935_751" x1="81.6939" y1="40.2961" x2="136.379" y2="52.1824" gradientUnits="userSpaceOnUse">
<stop stop-color="white"/>
<stop offset="1" stop-color="#A6B9FB"/>
</linearGradient>
<clipPath id="clip0_935_751">
<rect width="173.78" height="130.559" fill="white"/>
</clipPath>
</defs>
</svg>
