<svg width="93" height="52" viewBox="0 0 93 52" fill="none" xmlns="http://www.w3.org/2000/svg">
<g clip-path="url(#clip0_981_6698)">
<path fill-rule="evenodd" clip-rule="evenodd" d="M27.5881 34.9578H0L2.7988 25.3223H40.8624L37.264 37.8246L34.7051 46.6638H21.5907L27.5881 34.9578Z" fill="#2F3DD2"/>
<path fill-rule="evenodd" clip-rule="evenodd" d="M40.543 52L44.7811 37.3477H56.776L53.8173 43.0812H82.1251L77.5671 52H40.543Z" fill="#2F3DD2"/>
<path fill-rule="evenodd" clip-rule="evenodd" d="M31.3467 21.3415L37.504 0H48.2194L42.0621 21.3415H31.3467Z" fill="#2F3DD2"/>
<path fill-rule="evenodd" clip-rule="evenodd" d="M12.8743 21.3415L17.6723 10.2726H1.99902L7.27675 0H31.4264L28.6276 9.79479L23.6697 21.3415H12.8743Z" fill="#2F3DD2"/>
<path d="M88.2825 21.3409L93.0804 4.77734H54.2172L49.4192 21.3409H62.4536L61.2541 25.3225H48.2997L46.1406 32.7283H85.0039L87.163 25.3225H74.2885L75.488 21.3409H88.2825ZM64.2129 15.3685L65.5723 10.8294H78.6067L77.2473 15.3685H64.2129Z" fill="#2F3DD2"/>
</g>
<defs>
<clipPath id="clip0_981_6698">
<rect width="93" height="52" fill="white"/>
</clipPath>
</defs>
</svg>
