<?xml version="1.0" encoding="UTF-8"?>
<svg id="_레이어_2" data-name="레이어 2" xmlns="http://www.w3.org/2000/svg" viewBox="0 0 91.09 12.44">
  <defs>
    <style>
      .cls-1 {
        fill: #664fff;
      }
    </style>
  </defs>
  <g id="_레이어_1-2" data-name="레이어 1">
    <g>
      <path class="cls-1" d="M10.53,0l-4.48,6.76v5.68h3.51l4.48-6.76V0h-3.51Z"/>
      <path class="cls-1" d="M4.48,0L0,6.76v5.68h3.51l4.48-6.76V0h-3.51Z"/>
      <path d="M30.5,0h2.81v12.44h-2.81V0Z"/>
      <path d="M34.51,0h2.81l4.82,7.8V0h2.81v12.44h-2.75l-4.87-7.89v7.89h-2.81V0Z"/>
      <path d="M18.86,0h2.81l4.82,7.8V0h2.81v12.44h-2.75l-4.87-7.89v7.89h-2.81V0Z"/>
      <path d="M46.15,0h7.62v2.41h-4.82v2.41h4.42v2.41h-4.42v2.81h4.82v2.41h-7.62V0Z"/>
      <path d="M56.58,0h2.81v5.52l5.22-1.62V0h2.81v12.44h-2.81v-5.8l-5.22,1.62v4.18h-2.81V0Z"/>
      <path d="M68.62,0h2.81v12.44h-2.81V0Z"/>
      <path d="M79.32,7.07c1.51-.58,2.74-1.59,2.74-3.24,0-1.36-.58-2.37-1.44-2.99-.86-.62-1.91-.84-3.25-.84h-4.74v12.44h2.81v-4.18l1.33-.41,2.97,4.6h3.13l-3.55-5.37h0ZM78.68,4.68c-.06.03-.12.06-.19.08h-.04c-1,.32-2,.63-3,.94v-3.3h2.71c.61,0,1.1.55,1.1,1.16,0,.53-.23.93-.58,1.12h0Z"/>
      <path d="M83.47,0h7.62v2.41h-4.82v2.41h4.41v2.41h-4.41v2.81h4.82v2.41h-7.62V0Z"/>
    </g>
  </g>
</svg>