<?xml version="1.0" encoding="UTF-8"?>
<svg id="_레이어_2" data-name="레이어 2" xmlns="http://www.w3.org/2000/svg" viewBox="0 0 97.8 17.06">
  <defs>
    <style>
      .cls-1 {
        fill: #ff5812;
      }

      .cls-2 {
        fill: #140900;
      }
    </style>
  </defs>
  <g id="_레이어_1-2" data-name="레이어 1">
    <g>
      <g>
        <polygon class="cls-2" points="80.78 1.93 75.05 17.06 80.4 13.24 88.33 13.81 96.4 4.84 92.41 5.48 97.8 0 80.78 1.93"/>
        <polygon class="cls-1" points="82.23 3.79 80.88 7.36 85.55 5.9 79.91 11.19 87.5 11.73 90.5 8.39 85.66 9.15 92.33 2.65 82.23 3.79"/>
      </g>
      <g>
        <g>
          <polygon class="cls-1" points="59.53 0 55.1 .51 53.69 7.69 51.94 7.69 51.03 10.1 53.21 10.1 52.1 15.73 51.52 11.36 48.94 11.36 50.85 6.32 52.57 6.32 53.69 3.35 47.19 3.35 46.06 6.32 47.75 6.32 43.69 17.04 46.79 17.04 48.73 11.91 49.41 17.04 54.56 17.04 57.52 2.04 59.53 0"/>
          <polygon class="cls-1" points="58 2.89 55.21 17.04 57.93 17.04 60.72 2.89 58 2.89"/>
        </g>
        <g>
          <path class="cls-1" d="M74.04,14.18l-.57,2.86h-14.69s.57-2.87.57-2.87h14.69ZM61.32,6.5h13.78l-.45,2.25h-10.09l-.17.85h10.08s-.55,2.76-.55,2.76h-13.78l1.16-5.86Z"/>
          <polygon class="cls-1" points="75.82 2.89 75.27 5.65 61.49 5.65 62.04 2.89 75.82 2.89"/>
        </g>
        <g>
          <polygon class="cls-2" points="27.37 2.89 30.51 2.89 29.97 5.67 31.2 5.67 30.72 8.07 29.49 8.07 27.72 17.04 24.58 17.04 27.37 2.89"/>
          <path class="cls-2" d="M23.82,16.58h-9.13l2.61-13.24h3.08l-.88,4.44h2.9s.88-4.44.88-4.44h3.15l-2.61,13.24ZM18.33,13.72h2.9l.6-3.07h-2.9s-.6,3.07-.6,3.07Z"/>
        </g>
        <path class="cls-2" d="M43.61,14.19l-1.08,2.86h-12.58l.91-4.62h3.15l-.35,1.76h9.95ZM44.51,11.83h-14.26l.48-2.41h5.32s.12-.59.12-.59h-4.31l1.17-5.94h12.24l-1.17,5.94h-4.31l-.12.59h5.77l-.91,2.41M35.45,6.53h5.95s.28-1.41.28-1.41h-5.95s-.28,1.41-.28,1.41Z"/>
        <g>
          <polygon class="cls-2" points="15.31 2.89 12.16 2.89 10.68 10.41 1.31 10.41 .92 12.36 10.29 12.36 10.2 12.82 .83 12.82 0 17.04 12.52 17.04 12.9 15.09 3.53 15.09 3.62 14.63 12.99 14.63 14.29 8.07 15.51 8.07 15.99 5.67 14.76 5.67 15.31 2.89"/>
          <path class="cls-2" d="M6.75,2.89c-2.99,0-4.79,1.21-5.23,3.46-.29,1.48.19,2.51,1.39,3.04.63.28,1.46.42,2.48.42,2.99,0,4.79-1.21,5.23-3.46.44-2.25-.89-3.46-3.88-3.46ZM6.7,7.13c-.7.57-1.54.68-1.89.24-.35-.43-.06-1.24.64-1.81.7-.57,1.54-.68,1.89-.24.35.43.06,1.24-.64,1.81Z"/>
        </g>
      </g>
    </g>
  </g>
</svg>