<?xml version="1.0" encoding="UTF-8"?>
<svg id="_레이어_2" data-name="레이어 2" xmlns="http://www.w3.org/2000/svg" viewBox="0 0 79.82 14.54">
  <defs>
    <style>
      .cls-1 {
        fill: #111aff;
      }
    </style>
  </defs>
  <g id="_레이어_1-2" data-name="레이어 1">
    <g>
      <path class="cls-1" d="M13.83,14.54h1.74c2.06,0,3.74-1.69,3.74-3.76V3.76c0-2.07-1.68-3.76-3.74-3.76h-1.74c-2.06,0-3.74,1.69-3.74,3.76v7.01c0,2.07,1.68,3.76,3.74,3.76M13.2,4.08c0-.83.67-1.51,1.5-1.51s1.5.68,1.5,1.51v6.38c0,.83-.67,1.51-1.5,1.51s-1.5-.68-1.5-1.51v-6.38Z"/>
      <path class="cls-1" d="M5.54.15v10.79c0,.72-.58,1.07-1.3,1.07s-1.3-.35-1.3-1.07v-3.01H0v3.72s.03,2.9,4.22,2.9,4.41-2.82,4.42-3.07V.15S5.54.15,5.54.15Z"/>
      <polygon class="cls-1" points="64.58 8.3 68.61 8.3 68.61 5.85 64.58 5.85 64.58 2.7 68.91 2.7 68.91 .16 61.48 .16 61.48 14.31 68.96 14.31 68.96 11.76 64.58 11.76 64.58 8.3"/>
      <path class="cls-1" d="M44.5,0c-2.06,0-3.74,1.69-3.74,3.76v7.01c0,2.07,1.68,3.76,3.74,3.76h1.74c2.06,0,3.74-1.69,3.74-3.76V3.76c0-2.07-1.68-3.76-3.74-3.76h-1.74ZM46.87,10.46c0,.83-.67,1.51-1.5,1.51s-1.5-.68-1.5-1.51v-6.38c0-.83.67-1.51,1.5-1.51s1.5.68,1.5,1.51v6.38Z"/>
      <polygon class="cls-1" points="40.78 14.31 36.86 7.02 40.7 .16 37.49 .16 33.92 6.79 33.92 .16 30.82 .16 30.82 14.31 33.92 14.31 33.92 7.57 37.53 14.31 40.78 14.31"/>
      <path class="cls-1" d="M77.01.16h-4.88l-2.73,14.15h2.94l.61-3.33h3.25l.53,3.33h3.08L77.01.16ZM73.43,8.55l1.19-6.16,1.19,6.16h-2.38Z"/>
      <path class="cls-1" d="M59.5,9.22c-.11-.45-.3-.74-.7-.88.86-.39,1.34-1.26,1.34-2.5v-2.19c0-.71-.21-1.37-.58-1.92-.6-.95-1.64-1.57-2.82-1.57h-5.31v14.15h3.1v-4.64l1.99-.63,1.16,5.27h3.02l-1.21-5.08ZM57.04,5.65c0,.68-.43,1.05-.91,1.2-.45.15-1.59.51-1.59.51V2.39h1.44c.51,0,1.06.38,1.06,1.05v2.21Z"/>
      <path class="cls-1" d="M29.64,9.48s.06-1.91-1.81-2.36c.88-.36,1.51-1.19,1.59-2.17v-1.84c0-1.19-.7-2.21-1.73-2.67-.37-.17-.77-.26-1.2-.27h-5.74v14.15h5.77s.49,0,.98-.16c1.24-.4,2.14-1.57,2.14-2.95v-1.73ZM23.83,2.06h1.49c.56.02,1.01.47,1.01,1.03v1.5c0,.56-.48.83-1.02,1-.72.23-1.48.47-1.48.47V2.06ZM26.51,10.88c0,.62-.5,1.13-1.13,1.13h-1.56v-3.69l1.59-.5c.81,0,1.09.83,1.09,1.43v1.64Z"/>
    </g>
  </g>
</svg>