<svg width="242" height="24" viewBox="0 0 242 24" fill="none" xmlns="http://www.w3.org/2000/svg">
<g clip-path="url(#clip0_725_51)">
<g clip-path="url(#clip1_725_51)">
<path d="M23.185 23.9951H26.1092C29.5562 23.9951 32.3787 21.1999 32.3787 17.7856V6.21893C32.3787 2.80464 29.5514 0.00940433 26.1043 0.0141662H23.1802C19.7331 0.0141662 16.9106 2.8094 16.9106 6.22369V17.7904C16.9106 21.2046 19.738 23.9951 23.185 23.9951ZM22.1296 6.74274C22.1296 5.37607 23.2576 4.25702 24.6374 4.25702C26.0172 4.25702 27.1452 5.37607 27.1452 6.74274V17.2665C27.1452 18.6332 26.022 19.7523 24.6374 19.7523C23.2576 19.7523 22.1296 18.6332 22.1296 17.2665V6.74274Z" fill="#111AFF"/>
<path d="M9.29052 0.261719V18.057C9.29536 19.2474 8.31741 19.8141 7.11192 19.8141C5.90643 19.8141 4.92363 19.2474 4.92363 18.057V13.0855H0V19.2141C0 19.2141 0.0580959 23.9951 7.07803 23.9951C14.4223 23.9951 14.4756 19.3379 14.4901 18.9284V0.261719H9.29052Z" fill="#111AFF"/>
<path d="M108.276 13.6861L115.03 13.6814V9.63376H108.276L108.271 4.44328H115.528V0.248047L103.067 0.252809L103.077 23.5909L115.62 23.5861V19.3814L108.276 19.3861V13.6861Z" fill="#111AFF"/>
<path d="M74.6099 0C71.1628 0 68.3403 2.79524 68.3403 6.20952V17.7762C68.3403 21.1905 71.1677 23.981 74.6147 23.981H77.5389C80.9859 23.981 83.8084 21.1857 83.8084 17.7714V6.20476C83.7987 2.79048 80.9762 0 77.5292 0H74.605H74.6099ZM78.5846 17.2524C78.5846 18.619 77.4566 19.7381 76.0768 19.7381C74.697 19.7381 73.569 18.619 73.569 17.2524V6.72857C73.569 5.3619 74.6922 4.24286 76.0768 4.24286C77.4566 4.24286 78.5846 5.3619 78.5846 6.72857V17.2524Z" fill="#111AFF"/>
<path d="M68.3648 23.5998L61.7999 11.576L68.234 0.261719H62.8456L56.8666 11.2046L56.8617 0.266481H51.667L51.6767 23.6046L56.8714 23.5998L56.8666 12.4855L62.9231 23.5998H68.3648Z" fill="#111AFF"/>
<path d="M129.109 0.242676H120.927L116.361 23.5808H121.299L122.316 18.0855H127.763L128.658 23.576H133.819L129.109 0.242676ZM123.105 14.0808L125.095 3.92363L127.095 14.0808H123.105Z" fill="#111AFF"/>
<path d="M99.7552 15.2048C99.5761 14.4715 99.2517 13.981 98.5836 13.7524C100.017 13.1048 100.825 11.681 100.825 9.62387V6.01435C100.825 4.84292 100.467 3.75244 99.8569 2.84292C98.8451 1.28101 97.107 0.252441 95.1318 0.252441H86.2334L86.2382 23.5905H91.4427V15.9286L94.7735 14.8905L96.7197 23.5858H101.789L99.7601 15.2001L99.7552 15.2048ZM95.6256 9.31435C95.6256 10.4334 94.9042 11.0382 94.0957 11.3001C93.3453 11.5429 91.433 12.1477 91.433 12.1477V3.93816H93.844C94.7009 3.93816 95.6207 4.56197 95.6207 5.67625V9.31435H95.6256Z" fill="#111AFF"/>
<path d="M49.682 15.6382C49.682 15.6382 49.774 12.481 46.6465 11.7477C48.1182 11.1572 49.1833 9.79053 49.3092 8.16196L49.3237 5.1191C49.3237 3.15244 48.1279 1.46672 46.4189 0.714341C45.8041 0.438151 45.1263 0.281008 44.4146 0.271484H34.79L34.7949 23.6096H44.4679C44.4679 23.6096 45.2957 23.6143 46.1091 23.3429C48.186 22.681 49.6868 20.7572 49.6868 18.481V15.6382H49.682ZM39.9509 3.41434H42.4442C43.3786 3.44767 44.1387 4.19529 44.1387 5.11434V7.59053C44.1387 8.50958 43.335 8.9572 42.4345 9.23815C41.2339 9.61434 39.9509 10.0143 39.9509 10.0143V3.41434ZM44.4533 17.9477C44.4533 18.9715 43.6109 19.8048 42.5652 19.8048H39.9557V13.7143L42.6282 12.881C43.9789 12.881 44.4533 14.2572 44.4533 15.2477V17.9524V17.9477Z" fill="#111AFF"/>
<path d="M158.806 11.8661H153.301L152.551 14.1661H149.472L154.705 0.24707H157.387L162.65 14.1661H159.571L158.811 11.8661H158.806ZM154.052 9.62326H158.055L156.041 3.73278L154.052 9.62326Z" fill="#5A5C5E"/>
<path d="M145.284 0.242676H139.188V14.1617H141.861V9.61887H145.284C147.845 9.61887 149.922 7.56648 149.922 5.03791V4.82363C149.922 2.29506 147.845 0.242676 145.284 0.242676ZM144.896 7.29506H141.861V2.56172H144.896C146.223 2.56172 147.293 3.62363 147.293 4.92839C147.293 6.23315 146.218 7.29506 144.896 7.29506Z" fill="#5A5C5E"/>
<path d="M172.497 14.1614H175.59L172.87 8.92802C174.191 8.1185 175.072 6.68516 175.072 5.03755V4.82326C175.072 2.29469 172.995 0.24707 170.429 0.24707H164.363V14.1661H167.041V9.6185H170.158L172.497 14.1661V14.1614ZM167.045 2.55659H170.042C171.369 2.55659 172.443 3.6185 172.443 4.92326C172.443 6.22802 171.369 7.28993 170.042 7.28993H167.045V2.55659Z" fill="#5A5C5E"/>
<path d="M226.085 14.1614H229.179L226.458 8.92802C227.78 8.1185 228.661 6.68516 228.661 5.03755V4.82326C228.661 2.29469 226.584 0.24707 224.018 0.24707H217.952V14.1661H220.629V9.6185H223.747L226.085 14.1661V14.1614ZM220.634 2.55659H223.631C224.957 2.55659 226.032 3.6185 226.032 4.92326C226.032 6.22802 224.957 7.28993 223.631 7.28993H220.634V2.55659Z" fill="#5A5C5E"/>
<path d="M202.155 14.1617H199.463L193.121 4.96649V14.1617H190.438V0.242676H193.121L199.463 9.42839V0.242676H202.145V14.1617H202.155Z" fill="#5A5C5E"/>
<path d="M238.305 10.5335C238.305 9.98584 238.111 9.57155 237.729 9.27631C237.346 8.98583 236.654 8.67631 235.652 8.3525C234.655 8.02869 233.861 7.70964 233.28 7.39536C231.692 6.53345 230.898 5.37631 230.898 3.91917C230.898 3.16203 231.111 2.48584 231.537 1.89536C231.963 1.30012 232.573 0.838216 233.372 0.504883C234.17 0.171549 235.066 0.00488281 236.058 0.00488281C237.051 0.00488281 237.947 0.185835 238.731 0.54774C239.51 0.909645 240.12 1.42393 240.551 2.08107C240.982 2.74298 241.2 3.4906 241.2 4.33345H238.315C238.315 3.6906 238.111 3.1906 237.709 2.83822C237.308 2.48107 236.736 2.30488 236.01 2.30488C235.284 2.30488 234.756 2.4525 234.364 2.7525C233.972 3.0525 233.778 3.44298 233.778 3.93345C233.778 4.3906 234.006 4.77155 234.466 5.08107C234.926 5.3906 235.599 5.67631 236.489 5.94774C238.131 6.44298 239.326 7.0525 240.077 7.78584C240.827 8.51917 241.2 9.42869 241.2 10.5192C241.2 11.7335 240.74 12.6858 239.825 13.3715C238.91 14.062 237.676 14.4049 236.126 14.4049C235.052 14.4049 234.069 14.2096 233.183 13.8144C232.297 13.4192 231.624 12.8811 231.159 12.1906C230.694 11.5049 230.462 10.5763 230.462 9.67155H233.357C233.357 11.2192 234.282 12.1239 236.126 12.1239C236.814 12.1239 237.346 11.9858 237.734 11.7049C238.116 11.4239 238.31 11.0335 238.31 10.5335H238.305Z" fill="#5A5C5E"/>
<path d="M188.076 0.242676H176.365V2.53791H180.877V14.1617H183.564V2.53791H188.076V0.242676Z" fill="#5A5C5E"/>
<path d="M214.965 2.55696V0.242676H205.205V0.947438V2.55696V5.90458V8.13315V11.8522V14.0712V14.1665H214.965V11.8522H207.887V8.13315H214.137V5.90458H207.887V2.55696H214.965Z" fill="#5A5C5E"/>
</g>
</g>
<defs>
<clipPath id="clip0_725_51">
<rect width="241.2" height="24" fill="white"/>
</clipPath>
<clipPath id="clip1_725_51">
<rect width="241.2" height="24" fill="white"/>
</clipPath>
</defs>
</svg>
