<?xml version="1.0" encoding="UTF-8"?>
<svg id="_레이어_2" data-name="레이어 2" xmlns="http://www.w3.org/2000/svg" viewBox="0 0 80.61 14.61">
  <defs>
    <style>
      .cls-1 {
        fill: #00a6e2;
      }
    </style>
  </defs>
  <g id="_레이어_1-2" data-name="레이어 1">
    <g>
      <path class="cls-1" d="M63.49,0c-3.07,0-5.72,1.72-5.72,6.08v2.54c0,4.36,2.64,5.98,5.72,5.98s5.97-1.67,5.97-6.03v-2.54c0-4.36-2.9-6.03-5.97-6.03ZM66.25,8.87c0,1.46-1.17,2.66-2.61,2.66h-.04c-1.44,0-2.61-1.2-2.61-2.66v-3.19c0-1.44,1.15-2.61,2.58-2.61h0c1.49,0,2.69,1.22,2.69,2.72v3.08Z"/>
      <path class="cls-1" d="M53.79,14.38h0c1.44,0,2.61-1.18,2.61-2.63V.62c0-.21-.17-.38-.38-.38h-2.29c-.21,0-.38.17-.38.38v10.31c0,.21-.17.38-.38.38h-3.36c-.21,0-.38.17-.38.38v2.31c0,.21.17.38.38.38h4.19Z"/>
      <path class="cls-1" d="M38.29.23c-.21,0-.38.17-.38.38v13.38c0,.21.17.38.38.38h9.02c.21,0,.38-.17.38-.38v-2.31c0-.21-.17-.38-.38-.38h-6.19v-2.54h6.19c.21,0,.38-.17.38-.38v-2.15c0-.21-.17-.38-.38-.38h-6.19v-2.54h6.19c.21,0,.38-.17.38-.38V.62c0-.21-.17-.38-.38-.38h-9.02Z"/>
      <path class="cls-1" d="M77.1,14.38c1.93,0,3.52-1.6,3.52-3.56v-.73c0-1.22-.61-2.3-1.55-2.94.88-.65,1.45-1.7,1.45-2.87v-.49c0-1.96-1.58-3.56-3.52-3.56h-5.79c-.21,0-.38.17-.38.39v13.38c0,.21.17.39.38.39h5.88ZM77.63,10.08c0,.8-.59,1.45-1.38,1.45h-2.21v-2.92h2.21c.79,0,1.38.65,1.38,1.45v.02ZM74.04,3.08h2.34c.68,0,1.18.56,1.18,1.25v.11c0,.69-.5,1.25-1.18,1.25h-2.34v-2.61Z"/>
      <path class="cls-1" d="M31.24,9.4c.24,0,.43-.09.56-.32l1.66-3.04s0,0,0,0c0,0,0,0,0,0v7.95c0,.21.17.38.38.38h2.29c.21,0,.38-.17.38-.38V.62c0-.21-.17-.38-.38-.38h-2.09c-.12,0-.22.02-.31.05-.08.03-.15.07-.15.07-.14.08-.23.21-.33.39l-1.52,2.88-1.53,2.88-1.53-2.88-1.52-2.88c-.1-.19-.19-.31-.33-.39,0,0-.07-.04-.15-.07-.09-.03-.19-.05-.31-.05h-2.09c-.21,0-.38.17-.38.38v13.38c0,.21.17.38.38.38h2.29c.21,0,.38-.17.38-.38v-7.95s0,0,0,0c0,0,0,0,0,0l1.66,3.04c.13.23.32.32.56.32h2.04Z"/>
      <g>
        <path class="cls-1" d="M9.78,2.92V.62c0-.21-.17-.38-.38-.38H3.44c-.21,0-.38.17-.38.38v2.69h6.34c.21,0,.38-.17.38-.38Z"/>
        <path class="cls-1" d="M3.06,11.31V3.31H.38c-.21,0-.38.17-.38.38v10.31c0,.21.17.38.38.38h9.02c.21,0,.38-.17.38-.38v-7.92c0-.21-.17-.38-.38-.38h-4.28c-.21,0-.38.18-.38.39v2.31c0,.21.17.38.38.38h1.61s0,2.54,0,2.54h-3.67Z"/>
      </g>
      <path class="cls-1" d="M14.87,11.31l-.65,2.74c-.04.19-.19.34-.37.34h-2.53c-.22,0-.35-.18-.29-.39v-.02s3.05-11.65,3.05-11.65c.47-1.82,1.68-2.09,2.76-2.09h.07c1.09,0,2.3.27,2.76,2.09l3.01,11.65s0,.02,0,.03c.05.19-.1.38-.3.38h-2.53c-.19,0-.34-.15-.37-.34l-.63-2.74h-3.99,0ZM15.49,8.7h2.76l-1.2-5.02c-.05-.22-.11-.37-.18-.37h0c-.07,0-.12.15-.18.37l-1.2,5.02Z"/>
    </g>
  </g>
</svg>