<?xml version="1.0" encoding="UTF-8"?>
<svg id="_레이어_2" data-name="레이어 2" xmlns="http://www.w3.org/2000/svg" viewBox="0 0 86.4 18.68">
  <defs>
    <style>
      .cls-1 {
        fill: #e95532;
      }

      .cls-2 {
        fill: #ff5a3d;
      }
    </style>
  </defs>
  <g id="_레이어_1-2" data-name="레이어 1">
    <g>
      <path d="M15.5,4.84c-.05-.19-.21-.72-.63-1.44C13.44.9,10.63.29,9.49.11,8.09-.1,6.58,0,5.23.39,3.46.9,2.04,1.85,1.14,3.24-.2,5.29-.01,7.51.04,7.93c.15,1.23.58,2.16.91,2.7l2.94-1.82c-.1-.17-.34-.62-.42-1.29,0-.01-.14-1.31.57-2.4,1.13-1.73,3.71-1.78,4.92-1.59,1.94.3,2.69,1.2,2.92,1.6.2.35.28.58.28.6.15.56.07,1.38-.45,1.89-.08.08-.29.34-.53.42,0,0-.14-.03-.33-.07-.15-.03-.3-.05-.45-.07-.11-.01-.23-.02-.34-.03h-.06c-.15,0-.27,0-.38.02-.82.1-1.46.74-1.55,1.54-.1.93.53,1.74,1.47,1.91.18.03.42.06.57.07.11,0,.21.01.31.01.72.23,1.31.82,1.42,1.3.14.62-.37,1.36-.55,1.56-.51.56-1.47.96-2.64.93-.96-.03-1.98-.33-2.85-.78l2.96-9.58h-3.46l-2.17,7.03c-.07-.12-.13-.24-.19-.36L.02,13.33c.51,1.03,1.12,1.86,1.88,2.57l-.79,2.57h3.46l.21-.68c1.19.53,2.51.86,3.79.9.09,0,.17,0,.25,0,2.09,0,3.87-.78,5.03-2.06.12-.14.56-.64.92-1.38.54-1.09.69-2.22.45-3.28-.16-.72-.5-1.38-.98-1.97,1.25-1.31,1.75-3.31,1.27-5.15Z"/>
      <path d="M42.52,10.84c.82,0,2.27.39,3.52,1.04l.56-2.92c-1.13-.55-2.7-.93-4.12-.93-2.74,0-4.55,1.35-4.59,3.65-.02,1.17.43,1.91,1.2,2.34.77.43,1.77.64,2.26.83.5.18.73.29.73.61,0,.33-.33.47-.71.47-.84,0-2.76-.51-4.1-1.33l-.59,3.08c1.21.57,2.94,1.01,4.48,1.01,2.8,0,4.82-1.38,4.87-3.76.02-.88-.27-1.49-.92-1.96-.65-.47-1.48-.75-2.26-1-.76-.25-1.05-.35-1.05-.65,0-.27.21-.47.73-.47Z"/>
      <path d="M32.95,10.84c.82,0,2.27.39,3.52,1.04l.56-2.92c-1.13-.55-2.7-.93-4.12-.93-2.74,0-4.55,1.35-4.59,3.65-.02,1.17.43,1.91,1.2,2.34.77.43,1.77.64,2.26.83.5.18.73.29.73.61s-.33.47-.71.47c-.84,0-2.76-.51-4.1-1.33l-.59,3.08c1.21.57,2.94,1.01,4.48,1.01,2.8,0,4.82-1.38,4.87-3.76.02-.88-.27-1.49-.92-1.96-.65-.47-1.48-.75-2.26-1-.76-.25-1.05-.35-1.05-.65,0-.27.21-.47.73-.47Z"/>
      <path d="M60.57,8.02c-1.36,0-2.53.49-3.46,1.25-.5-.82-1.4-1.25-2.54-1.25-1.04,0-1.98.4-2.69,1.01v-.03s.15-.77.15-.77h-3.9l-1.95,10.23h3.9l1.27-6.68c.36-.22.82-.39,1.21-.39.54,0,.96.24.88.78l-1.2,6.29h3.9l1.27-6.68c.36-.22.81-.39,1.21-.39.54,0,.96.24.88.78l-1.2,6.29h3.9l1.33-6.99c.09-.45.08-.91-.02-1.35-.32-1.35-1.43-2.11-2.96-2.11Z"/>
      <path d="M22.11,8.02c-1.68,0-3.16.63-4.25,1.65-1.09,1.02-1.79,2.53-1.82,4.25-.05,2.84,2.03,4.76,5.1,4.76,1.68,0,3.16-.6,4.25-1.62,1.09-1.02,1.82-2.54,1.85-4.26.05-2.84-2.06-4.78-5.13-4.78ZM22.77,14.66c-.35.41-.79.64-1.42.64-.86,0-1.45-.68-1.43-1.58.01-.61.24-1.27.59-1.68.35-.41.79-.65,1.42-.65.86,0,1.45.69,1.43,1.59-.01.61-.24,1.27-.59,1.68Z"/>
      <path d="M83.56,8.02c-1.1,0-2.04.4-2.73,1.01l.15-.8h-3.9l-1.95,10.23h3.9l1.27-6.68c.37-.23.81-.39,1.24-.39.5,0,.92.23.86.75l-1.2,6.32h3.9l1.15-6.03c.09-.47.14-.98.15-1.35.04-1.94-.99-3.07-2.83-3.07Z"/>
      <path class="cls-2" d="M75.01,11.15l.79-4.16c.02-.09-.01-.21-.11-.26-.07-.03-.17-.02-.27.06l-2.35,1.97c-.81-.48-1.82-.75-2.95-.75-.86,0-1.66.16-2.38.45l-1.36-1.68c-.07-.08-.17-.09-.25-.06-.12.05-.19.17-.21.26l-.63,3.31c-.75.97-1.22,2.22-1.24,3.61-.05,2.84,2.03,4.76,5.1,4.76,1.68,0,3.16-.6,4.25-1.62,1.09-1.02,1.82-2.54,1.85-4.26.01-.59-.07-1.15-.24-1.65ZM70.78,14.66c-.35.41-.79.64-1.42.64-.86,0-1.45-.68-1.43-1.58.01-.61.24-1.27.59-1.68.35-.41.79-.65,1.42-.65.86,0,1.45.69,1.43,1.59-.01.61-.24,1.27-.59,1.68Z"/>
      <rect class="cls-1" x="82.64" y="9.02" width="0" height=".08"/>
    </g>
  </g>
</svg>