<?xml version="1.0" encoding="UTF-8"?>
<svg id="_레이어_2" data-name="레이어 2" xmlns="http://www.w3.org/2000/svg" viewBox="0 0 99.62 16.6">
  <defs>
    <style>
      .cls-1 {
        fill: #fff;
      }

      .cls-2 {
        fill: #ff6000;
      }
    </style>
  </defs>
  <g id="_레이어_1-2" data-name="레이어 1">
    <g>
      <rect x="14.86" y="12.67" width="10.05" height="3.06"/>
      <rect x="14.86" y="2.18" width="3.71" height="13.55"/>
    </g>
    <g>
      <rect x="87.39" y="2.18" width="3.5" height="13.55"/>
      <polygon points="98.53 15.73 95.04 15.73 88.04 2.18 91.76 2.18 98.53 15.73"/>
      <rect x="96.13" y="2.18" width="3.5" height="13.55"/>
    </g>
    <g>
      <polygon points="6.08 2.18 3.5 15.73 0 15.73 2.59 2.18 6.08 2.18"/>
      <polygon points="6.99 2.18 9.59 15.73 13.11 15.73 10.52 2.18 6.99 2.18"/>
      <rect x="2.59" y="2.18" width="7.86" height="3.06"/>
      <rect x="2.16" y="9.61" width="8.3" height="3.06"/>
    </g>
    <g>
      <polygon points="45.19 2.18 42.6 15.73 39.11 15.73 41.7 2.18 45.19 2.18"/>
      <polygon points="46.1 2.18 48.7 15.73 52.21 15.73 49.62 2.18 46.1 2.18"/>
      <rect x="41.7" y="2.18" width="7.86" height="3.06"/>
      <rect x="41.26" y="9.61" width="8.3" height="3.06"/>
    </g>
    <rect x="54.18" y="2.18" width="3.5" height="13.55"/>
    <rect x="65.54" y="2.18" width="3.5" height="13.55"/>
    <g>
      <polygon points="62.81 12.67 59.82 12.67 55.6 2.18 58.8 2.18 62.81 12.67"/>
      <polygon points="60.41 12.67 63.39 12.67 67.62 2.18 64.41 2.18 60.41 12.67"/>
      <rect x="59.97" y="8.96" width="3.28" height="3.71"/>
    </g>
    <g>
      <g>
        <path d="M34.3,15.73h-7.65v-7.43s7.65,0,7.65,0c2.05,0,3.71,1.66,3.71,3.71h0c0,2.05-1.66,3.71-3.71,3.71Z"/>
        <path d="M34.19,8.96h-7.54V2.18s7.54,0,7.54,0c1.87,0,3.39,1.52,3.39,3.39h0c0,1.87-1.52,3.39-3.39,3.39Z"/>
      </g>
      <rect x="26.65" y="2.18" width="3.5" height="13.55"/>
      <rect class="cls-1" x="30.15" y="5.24" width="3.71" height="2.29"/>
      <rect class="cls-1" x="30.15" y="10.38" width="3.71" height="2.29"/>
    </g>
    <path class="cls-2" d="M78.97,16.6h-1.51c-3.55,0-6.45-2.68-6.45-6.23v-2.61c0-1.77.78-3.38,2.01-4.55,0,0,1.82-1.76,4.67-1.89.26-.01.54-.01.54-.01,0,0,.27,0,.53.01,2.84.14,4.67,1.89,4.67,1.89,1.23,1.17,2.01,2.78,2.01,4.55v2.61c0,3.54-2.9,6.23-6.45,6.23Z"/>
    <path class="cls-1" d="M77.9,4.59h.62c1.64,0,2.97,1.33,2.97,2.97v2.58c0,1.77-1.43,3.2-3.2,3.2h-.16c-1.77,0-3.2-1.43-3.2-3.2v-2.58c0-1.64,1.33-2.97,2.97-2.97Z"/>
    <g>
      <polygon class="cls-2" points="79.73 3.68 84.55 7.8 84.55 0 79.73 3.68"/>
      <polygon class="cls-2" points="71.88 7.8 76.7 3.68 71.88 0 71.88 7.8"/>
    </g>
  </g>
</svg>