<?xml version="1.0" encoding="UTF-8"?>
<svg id="_레이어_2" data-name="레이어 2" xmlns="http://www.w3.org/2000/svg" viewBox="0 0 95.46 19.48">
  <defs>
    <style>
      .cls-1 {
        fill: #7cde68;
      }

      .cls-2 {
        fill: #003ecb;
      }
    </style>
  </defs>
  <g id="_레이어_1-2" data-name="레이어 1">
    <g>
      <path class="cls-2" d="M33.52,9.75c0,3.56-2.36,6.03-5.45,6.03s-5.42-2.47-5.42-6.03,2.33-6.05,5.42-6.05,5.45,2.5,5.45,6.05ZM30.35,9.75c0-1.77-.79-3.11-2.28-3.11s-2.25,1.32-2.25,3.11.76,3.09,2.25,3.09,2.28-1.48,2.28-3.09Z"/>
      <path class="cls-2" d="M44.85,15.55h-3.02v-6.22c0-2.1-.73-2.69-2.03-2.69s-2.05.6-2.05,2.63v6.29h-3.02V3.92h3.02v.8c.55-.56,1.55-1.03,2.8-1.03,3.05,0,4.3,2.06,4.3,5.36v6.49h0Z"/>
      <path class="cls-2" d="M55.99,14.37c-1.04.9-2.59,1.41-4.03,1.41-3.61,0-5.9-2.36-5.9-6.03s2.41-6.05,5.59-6.05c3.34,0,5.28,2.74,5.28,6.05,0,.44,0,.75-.03.97h-7.67c.12,1.59,1.54,2.16,2.73,2.16.91,0,1.67-.28,2.15-.79l1.88,2.28h0ZM53.72,8.48c-.1-1.04-.76-2.08-2.25-2.08-1.19,0-2.13.91-2.25,2.08h4.5Z"/>
      <path class="cls-2" d="M84.37,13.55c-1.09,1.31-2.4,2.23-4.55,2.23-3.08,0-5.53-2.47-5.53-6.03s2.38-6.05,5.66-6.05c2.08,0,3.47.93,4.45,2.25l-1.82,2.35c-.7-.97-1.44-1.64-2.7-1.64-1.48,0-2.43,1.19-2.43,3.09s.94,3.16,2.43,3.16c1.21,0,1.98-.64,2.79-1.59l1.7,2.24h0Z"/>
      <path class="cls-2" d="M68.86,9.76c0,3.41-1.71,5.79-4.62,5.79-1.03,0-1.92-.39-2.48-.89v3.19l-3.02,1.63V3.93h3.02v.8c.58-.5,1.36-1.02,2.48-1.02,2.5,0,4.62,1.8,4.62,6.06h0ZM65.68,9.76c0-2.35-.82-3.12-2.03-3.12-.96,0-1.45.4-1.9.96v4.31c.47.63,1.19.98,2.08.98,1.18,0,1.85-1.21,1.85-3.12Z"/>
      <path class="cls-2" d="M73.08,15.55h-3.02V3.93h3.02v11.63Z"/>
      <path class="cls-2" d="M71.57,3.02c.83,0,1.51-.68,1.51-1.51s-.68-1.51-1.51-1.51-1.51.68-1.51,1.51.68,1.51,1.51,1.51Z"/>
      <path class="cls-2" d="M95.46,15.55l-4.53-5.94,4.35-5.69h-3.29l-3.35,4.39V3.92h-3.02v11.63h3.02v-4.62l3.54,4.62h3.28Z"/>
      <path class="cls-1" d="M9.74,19.48c5.38,0,9.74-4.36,9.74-9.74S15.12,0,9.74,0,0,4.36,0,9.74s4.36,9.74,9.74,9.74Z"/>
      <path class="cls-2" d="M15.6,1.96l-6.84,8.95-2.82-3.7-1.97,2.54,4.77,6.26L19.48,1.96h-3.88Z"/>
    </g>
  </g>
</svg>