<?xml version="1.0" encoding="UTF-8"?>
<svg id="_레이어_2" data-name="레이어 2" xmlns="http://www.w3.org/2000/svg" viewBox="0 0 85.09 19.09">
  <defs>
    <style>
      .cls-1 {
        fill: #ff5a3d;
      }
    </style>
  </defs>
  <g id="_레이어_1-2" data-name="레이어 1">
    <g>
      <path d="M57.88,12.62l-1.2,6.27h-3.66s1.13-5.91,1.13-5.91c.07-.5-.32-.73-.82-.73-.38,0-.8.15-1.14.36l-1.2,6.27h-3.66l1.83-9.6h3.66s-.14.72-.14.72v.03c.66-.58,1.55-.95,2.52-.95,1.07,0,1.91.4,2.38,1.17.88-.71,1.97-1.17,3.25-1.17,1.43,0,2.47.71,2.78,1.98.1.42.1.85.02,1.27l-1.25,6.56h-3.66l1.13-5.91c.07-.5-.32-.73-.83-.73-.38,0-.8.15-1.14.36Z"/>
      <path d="M76.35,9.28h3.66l-.14.75c.65-.57,1.53-.95,2.57-.95,1.73,0,2.7,1.06,2.66,2.88,0,.35-.06.83-.14,1.27l-1.08,5.66h-3.66l1.13-5.93c.05-.49-.34-.7-.81-.7-.4,0-.81.15-1.16.36l-1.2,6.27h-3.66l1.83-9.6Z"/>
      <path d="M16.56,9.28h3.66l-.19,1.02v.05c.63-.71,1.29-1.27,2.39-1.27.28,0,.66.09.98.2l-.66,3.49c-.34-.13-.65-.2-1.01-.2-.88,0-1.73.35-2.27.77l-1.06,5.55h-3.66l1.83-9.6Z"/>
      <path d="M24.57,10.56c.98-.96,2.28-1.48,3.75-1.48,2.43,0,4.27,1.37,4.27,4.02,0,.58-.13,1.33-.24,1.88h-5.78c.19,1.06,1.2,1.34,1.7,1.34.73,0,.84-.13,1.12-.29l2.47,1.53c-.73,1.12-2.47,1.53-3.78,1.53-2.92,0-5.08-1.59-5.08-4.48,0-1.63.6-3.09,1.58-4.05ZM29.28,13c0-.88-.49-1.23-1.09-1.23-.73,0-1.13.52-1.3,1.23h2.39Z"/>
      <path d="M33.07,9.28h3.66l.24,2.19c.11,1,.21,1.92.26,2.84h.04c.36-.92.79-1.94,1.18-2.84l.96-2.19h2.83l.21,2.19c.09,1,.15,1.9.21,2.84h.04c.39-.94.81-1.88,1.24-2.84l.94-2.19h3.66l-4.79,9.6h-3.36l-.15-1.58c-.09-1-.17-2.07-.23-3.03h-.04c-.39.96-.88,2.09-1.31,3.07l-.68,1.54h-3.45l-1.46-9.6Z"/>
      <path d="M7.52,19.09c-.63,0-1.25-.07-1.86-.23-.7-.18-3.11-.96-4.59-3.36C.22,14.11-.13,12.51.04,10.75c.13-1.34.53-2.4.7-2.85.05-.14.55-1.41,1.61-2.77.25-.32.51-.62.79-.9-.11-.32-.19-.76-.24-1.1-.07-.49-.28-1.8.53-3.12l2.85,1.76c-.09.14-.1.25-.11.4.47-.19.95-.33,1.44-.43,2.59-.52,5.87-.22,7,2.23.12.26.2.51.22.58v.04c.2.73.15,1.49-.13,2.22-.15.39-.37.75-.64,1.07h-.01c-.14.18-.88,1.04-2.29,1.33-1.41.29-4.12-.34-6.17-1.81-.17-.12-.33-.25-.48-.37-.85,1.02-1.24,2.03-1.25,2.05-.26.7-1.07,2.83.05,4.66.84,1.37,2.29,1.8,2.57,1.87.93.24,1.95.12,2.98-.29.82-.33,2.11-1.23,2.65-2.05l2.86,1.77c-1.13,1.52-2.58,2.68-4.21,3.37-1.07.45-2.17.67-3.25.67ZM8.14,5.05c.46.25.98.47,1.51.62.75.22,1.24.24,1.43.21.21-.03.32-.1.4-.16.04-.03.09-.08.11-.12h0s0-.02.01-.03c.02-.07.02-.14-.01-.2,0,0,0,0,0,0-.07-.14-.4-.33-.99-.42-.67-.11-1.54-.08-2.32.08-.04,0-.09.02-.13.03Z"/>
      <path class="cls-1" d="M75.04,7.88c-.06-.03-.16-.02-.25.05l-2.2,1.85c-.76-.45-1.71-.7-2.77-.7-.8,0-1.56.15-2.24.43l-1.27-1.58c-.06-.07-.16-.08-.23-.05-.11.04-.18.16-.2.24l-.59,3.11c-.71.91-1.14,2.09-1.17,3.39-.05,2.67,1.91,4.47,4.79,4.47,1.58,0,2.97-.56,3.99-1.52,1.02-.96,1.71-2.39,1.74-4,0-.56-.07-1.08-.23-1.55l.74-3.9c.02-.09,0-.2-.11-.24ZM70.42,15.32c-.33.38-.75.6-1.33.6-.81,0-1.36-.63-1.35-1.48.01-.58.23-1.19.56-1.58.33-.38.75-.61,1.33-.61.81,0,1.36.65,1.35,1.49-.01.58-.23,1.19-.56,1.58Z"/>
    </g>
  </g>
</svg>