<?xml version="1.0" encoding="UTF-8"?>
<svg id="_레이어_2" data-name="레이어 2" xmlns="http://www.w3.org/2000/svg" viewBox="0 0 41.77 15.05">
  <defs>
    <style>
      .cls-1 {
        fill: #4e16ff;
      }
    </style>
  </defs>
  <g id="_레이어_1-2" data-name="레이어 1">
    <g>
      <path class="cls-1" d="M26.23.92c.32.31.47.69.47,1.13s-.16.81-.47,1.13c-.32.31-.69.47-1.13.47s-.81-.16-1.12-.47c-.31-.31-.46-.69-.46-1.13s.15-.81.46-1.13c.31-.31.68-.47,1.12-.47s.82.16,1.13.47Z"/>
      <polygon class="cls-1" points="7.99 14.6 11.41 14.6 6.62 5.92 6.62 5.92 10.95 .45 7.53 .45 3.2 5.92 3.2 5.92 3.2 5.92 3.2 5.92 3.2 5.92 3.2 .45 0 .45 0 14.6 3.2 14.6 3.2 10.25 4.6 8.47 7.99 14.6"/>
      <polygon class="cls-1" points="38.34 14.6 41.77 14.6 36.97 5.92 36.97 5.92 41.31 .45 37.89 .45 33.55 5.92 33.55 5.92 33.55 5.92 33.55 5.92 33.55 5.92 33.55 .45 30.35 .45 30.35 14.6 33.55 14.6 33.55 10.25 34.96 8.47 38.34 14.6"/>
      <path class="cls-1" d="M29.39,11.86h-1.36c-.69,0-1.4-.9-1.43-1.87l-.12-5.43h-2.74v4.07c-.01.61-.17,1.72-.99,2.59-1.03,1.08-2.73,1.3-3.87.95-.31-.09-.59-.23-.84-.4.71-1.11,1.24-2.5,1.56-4.1.48-2.41.41-5.44-1.15-6.79-.97-.84-1.86-.87-2.33-.87-.44,0-1.37.12-2.36,1.14-1.36,1.4-1.37,4.82-.69,7.46.3,1.17.73,2.2,1.25,3.07-.08.04-.16.07-.23.09-.19.06-.39.09-.6.09h-1.61v2.74s1.52,0,1.62,0c.48,0,.96-.07,1.41-.21.43-.14.84-.34,1.24-.6.59.46,1.24.8,1.95,1.01.57.17,1.22.27,1.89.27,1.63,0,3.42-.56,4.75-1.95.06-.06.11-.12.16-.18.4.58.96,1.12,1.76,1.43.42.16.87.25,1.33.25s1.41,0,1.41,0v-2.74ZM16.91,7.13c-.16.82-.4,1.58-.7,2.24-.18-.41-.31-.8-.4-1.12-.77-2.6-.41-4.83-.09-5.2.01-.01.02-.02.04-.03.25-.24.65-.27.92-.05,0,0,0,0,0,0,.33.27.68,1.9.23,4.16Z"/>
    </g>
  </g>
</svg>